<svg viewBox="0 0 600 400" xmlns="http://www.w3.org/2000/svg">
<g transform="translate(50, 360)">
<g>
<circle cx="497.9100242489679" cy="-170.00113300082495" fill="#FF0000" r="1"/>
<circle cx="497.8821344955028" cy="-167.85211948197994" fill="#FF0000" r="1"/>
<circle cx="497.79930481431467" cy="-165.76779879268744" fill="#FF0000" r="1"/>
<circle cx="497.66319389665784" cy="-163.74659385891462" fill="#FF0000" r="1"/>
<circle cx="497.4754185992284" cy="-161.78685824000678" fill="#FF0000" r="1"/>
<circle cx="497.2375523153169" cy="-159.886889352854" fill="#FF0000" r="1"/>
<circle cx="496.9511236753844" cy="-158.04494063122945" fill="#FF0000" r="1"/>
<circle cx="496.61761554975004" cy="-156.2592326451688" fill="#FF0000" r="1"/>
<circle cx="496.2384643268206" cy="-154.52796321329723" fill="#FF0000" r="1"/>
<circle cx="495.81505944123626" cy="-152.849316547389" fill="#FF0000" r="1"/>
<circle cx="495.34874312738316" cy="-151.22147147333052" fill="#FF0000" r="1"/>
<circle cx="494.840810374923" cy="-149.6426087762211" fill="#FF0000" r="1"/>
<circle cx="494.29250906425364" cy="-148.11091771974458" fill="#FF0000" r="1"/>
<circle cx="493.7050402611388" cy="-146.62460179133942" fill="#FF0000" r="1"/>
<circle cx="493.07955865108636" cy="-145.1818837252246" fill="#FF0000" r="1"/>
<circle cx="492.4171730954047" cy="-143.78100985515002" fill="#FF0000" r="1"/>
<circle cx="491.7189472922028" cy="-142.4202538479434" fill="#FF0000" r="1"/>
<circle cx="490.98590052690827" cy="-141.09791986764864" fill="#FF0000" r="1"/>
<circle cx="490.2190084981473" cy="-139.81234521837834" fill="#FF0000" r="1"/>
<circle cx="489.4192042060566" cy="-138.56190251204086" fill="#FF0000" r="1"/>
<circle cx="488.58737889126496" cy="-137.3450014049111" fill="#FF0000" r="1"/>
<circle cx="487.72438301389377" cy="-136.1600899446763" fill="#FF0000" r="1"/>
<circle cx="486.8310272629747" cy="-135.00565556715037" fill="#FF0000" r="1"/>
<circle cx="485.90808358766753" cy="-133.8802257793677" fill="#FF0000" r="1"/>
<circle cx="484.9562862425827" cy="-132.782368563277" fill="#FF0000" r="1"/>
<circle cx="483.976332840368" cy="-131.71069253179223" fill="#FF0000" r="1"/>
<circle cx="482.96888540551265" cy="-130.66384686654825" fill="#FF0000" r="1"/>
<circle cx="481.9345714240531" cy="-129.64052106437418" fill="#FF0000" r="1"/>
<circle cx="480.873984884538" cy="-128.639444517251" fill="#FF0000" r="1"/>
<circle cx="479.78768730622204" cy="-127.65938594838153" fill="#FF0000" r="1"/>
<circle cx="478.6762087510241" cy="-126.69915272496743" fill="#FF0000" r="1"/>
<circle cx="477.54004881628845" cy="-125.7575900663766" fill="#FF0000" r="1"/>
<circle cx="476.37967760585616" cy="-124.83358016458756" fill="#FF0000" r="1"/>
<circle cx="475.19553667736545" cy="-123.92604123212433" fill="#FF0000" r="1"/>
<circle cx="473.9880399640762" cy="-123.03392649113788" fill="#FF0000" r="1"/>
<circle cx="472.75757466985056" cy="-122.15622311585135" fill="#FF0000" r="1"/>
<circle cx="471.5045021362193" cy="-121.29195113926002" fill="#FF0000" r="1"/>
<circle cx="470.22915868073295" cy="-120.44016233375763" fill="#FF0000" r="1"/>
<circle cx="468.93185640603053" cy="-119.59993907424817" fill="#FF0000" r="1"/>
<circle cx="467.61288397927035" cy="-118.77039319128605" fill="#FF0000" r="1"/>
<circle cx="466.27250738174996" cy="-117.95066482086484" fill="#FF0000" r="1"/>
<circle cx="464.9109706287022" cy="-117.13992125664153" fill="#FF0000" r="1"/>
<circle cx="463.5284964593973" cy="-116.33735580962897" fill="#FF0000" r="1"/>
<circle cx="462.12528699779995" cy="-115.54218667971413" fill="#FF0000" r="1"/>
<circle cx="460.70152438413936" cy="-114.75365584275416" fill="#FF0000" r="1"/>
<circle cx="459.25737137783494" cy="-113.97102795646295" fill="#FF0000" r="1"/>
<circle cx="457.792971932304" cy="-113.19358928782282" fill="#FF0000" r="1"/>
<circle cx="456.3084517422381" cy="-112.42064666433305" fill="#FF0000" r="1"/>
<circle cx="454.80391876399364" cy="-111.65152645103736" fill="#FF0000" r="1"/>
<circle cx="453.27946370978435" cy="-110.88557355494811" fill="#FF0000" r="1"/>
<circle cx="451.7351605164072" cy="-110.12215045820636" fill="#FF0000" r="1"/>
<circle cx="450.17106678925944" cy="-109.36063628107688" fill="#FF0000" r="1"/>
<circle cx="448.5872242224341" cy="-108.60042587567382" fill="#FF0000" r="1"/>
<circle cx="446.9836589957002" cy="-107.84092895114394" fill="#FF0000" r="1"/>
<circle cx="445.3603821491926" cy="-107.08156923089449" fill="#FF0000" r="1"/>
<circle cx="443.71738993664906" cy="-106.32178364234268" fill="#FF0000" r="1"/>
<circle cx="442.0546641580432" cy="-105.56102153957858" fill="#FF0000" r="1"/>
<circle cx="440.37217247247304" cy="-104.79874395927209" fill="#FF0000" r="1"/>
<circle cx="438.6698686921707" cy="-104.03442291011477" fill="#FF0000" r="1"/>
<circle cx="436.94769305850804" cy="-103.26754069606963" fill="#FF0000" r="1"/>
<circle cx="435.2055725008789" cy="-102.49758927369962" fill="#FF0000" r="1"/>
<circle cx="433.44342087934547" cy="-101.72406964386431" fill="#FF0000" r="1"/>
<circle cx="431.66113921194784" cy="-100.94649127810709" fill="#FF0000" r="1"/>
<circle cx="429.8586158875774" cy="-100.16437158010355" fill="#FF0000" r="1"/>
<circle cx="428.03572686533414" cy="-99.37723538260647" fill="#FF0000" r="1"/>
<circle cx="426.1923358612935" cy="-98.58461448039854" fill="#FF0000" r="1"/>
<circle cx="424.3282945236256" cy="-97.78604719985579" fill="#FF0000" r="1"/>
<circle cx="422.44344259702643" cy="-96.98107800582781" fill="#FF0000" r="1"/>
<circle cx="420.5376080774407" cy="-96.16925714665673" fill="#FF0000" r="1"/>
<circle cx="418.6106073580773" cy="-95.35014033828587" fill="#FF0000" r="1"/>
<circle cx="416.6622453677477" cy="-94.52328848854843" fill="#FF0000" r="1"/>
<circle cx="414.69231570258535" cy="-93.68826746288045" fill="#FF0000" r="1"/>
<circle cx="412.70060075224" cy="-92.84464789286511" fill="#FF0000" r="1"/>
<circle cx="410.68687182167866" cy="-91.99200502919305" fill="#FF0000" r="1"/>
<circle cx="408.65088924976965" cy="-91.1299186408109" fill="#FF0000" r="1"/>
<circle cx="406.59240252587466" cy="-90.2579729622309" fill="#FF0000" r="1"/>
<circle cx="404.511150405725" cy="-89.37575669118672" fill="#FF0000" r="1"/>
<circle cx="402.40686102792324" cy="-88.48286303904557" fill="#FF0000" r="1"/>
<circle cx="400.2792520324719" cy="-87.57888983662252" fill="#FF0000" r="1"/>
<circle cx="398.1280306828043" cy="-86.66343969829316" fill="#FF0000" r="1"/>
<circle cx="395.95289399287407" cy="-85.73612024756076" fill="#FF0000" r="1"/>
<circle cx="393.75352886094066" cy="-84.79654440750758" fill="#FF0000" r="1"/>
<circle cx="391.52961221178424" cy="-83.8443307598452" fill="#FF0000" r="1"/>
<circle cx="389.28081114918234" cy="-82.87910397657404" fill="#FF0000" r="1"/>
<circle cx="387.0067831205889" cy="-81.90049532857033" fill="#FF0000" r="1"/>
<circle cx="384.707176096073" cy="-80.90814327573564" fill="#FF0000" r="1"/>
<circle cx="382.38162876369773" cy="-79.90169414367027" fill="#FF0000" r="1"/>
<circle cx="380.02977074365475" cy="-78.88080289216704" fill="#FF0000" r="1"/>
<circle cx="377.65122282361096" cy="-77.84513398116201" fill="#FF0000" r="1"/>
<circle cx="375.2455972178728" cy="-76.79436234012475" fill="#FF0000" r="1"/>
<circle cx="372.81249785313776" cy="-75.72817444721856" fill="#FF0000" r="1"/>
<circle cx="370.3515206837676" cy="-74.64626952490732" fill="#FF0000" r="1"/>
<circle cx="367.8622540396958" cy="-73.54836085902978" fill="#FF0000" r="1"/>
<circle cx="365.34427901027203" cy="-72.43417724869636" fill="#FF0000" r="1"/>
<circle cx="362.79716986753607" cy="-71.30346459468649" fill="#FF0000" r="1"/>
<circle cx="360.2204945326219" cy="-70.15598763432828" fill="#FF0000" r="1"/>
<circle cx="357.61381508920005" cy="-68.9915318311223" fill="#FF0000" r="1"/>
<circle cx="354.9766883480853" cy="-67.80990542761806" fill="#FF0000" r="1"/>
<circle cx="352.30866646736075" cy="-66.61094167025918" fill="#FF0000" r="1"/>
<circle cx="349.60929763259605" cy="-65.39450121506951" fill="#FF0000" r="1"/>
<circle cx="346.87812680197135" cy="-64.1604747231473" fill="#FF0000" r="1"/>
<circle cx="344.11469652134866" cy="-62.908785654955814" fill="#FF0000" r="1"/>
<circle cx="341.3185478145679" cy="-61.6393932723318" fill="#FF0000" r="1"/>
<circle cx="338.4892211544718" cy="-60.35229585696225" fill="#FF0000" r="1"/>
<circle cx="335.626257520388" cy="-59.04753415378747" fill="#FF0000" r="1"/>
<circle cx="332.72919954801097" cy="-57.72519504735533" fill="#FF0000" r="1"/>
<circle cx="329.7975927778268" cy="-56.3854154785558" fill="#FF0000" r="1"/>
<circle cx="326.8309870084059" cy="-55.02838660838309" fill="#FF0000" r="1"/>
<circle cx="323.82893776104896" cy="-53.65435823437974" fill="#FF0000" r="1"/>
<circle cx="320.79100786240247" cy="-52.26364346418458" fill="#FF0000" r="1"/>
<circle cx="317.7167691517545" cy="-50.85662364910513" fill="#FF0000" r="1"/>
<circle cx="314.6058043197751" cy="-49.43375357883399" fill="#FF0000" r="1"/>
<circle cx="311.45770888546554" cy="-47.99556693629308" fill="#FF0000" r="1"/>
<circle cx="308.2720933180235" cy="-46.542682009086754" fill="#FF0000" r="1"/>
<circle cx="305.0485853102006" cy="-45.07580765113763" fill="#FF0000" r="1"/>
<circle cx="301.78683220951893" cy="-43.59574948473149" fill="#FF0000" r="1"/>
<circle cx="298.4865036134115" cy="-42.10341632937535" fill="#FF0000" r="1"/>
<circle cx="295.1472941339395" cy="-40.599826839538466" fill="#FF0000" r="1"/>
<circle cx="291.76892633721275" cy="-39.08611632846941" fill="#FF0000" r="1"/>
<circle cx="288.35115386197646" cy="-37.563543749831744" fill="#FF0000" r="1"/>
<circle cx="284.89376472101594" cy="-36.03349880285326" fill="#FF0000" r="1"/>
<circle cx="281.3965847880519" cy="-34.49750912002006" fill="#FF0000" r="1"/>
<circle cx="277.8594814716441" cy="-32.957247489058346" fill="#FF0000" r="1"/>
<circle cx="274.2823675762637" cy="-31.4145390530333" fill="#FF0000" r="1"/>
<circle cx="270.66520534912706" cy="-29.87136842387356" fill="#FF0000" r="1"/>
<circle cx="267.0080107095855" cy="-28.329886635528634" fill="#FF0000" r="1"/>
<circle cx="263.3108576558271" cy="-26.79241785333937" fill="#FF0000" r="1"/>
<circle cx="259.57388284134794" cy="-25.261465746117576" fill="#FF0000" r="1"/>
<circle cx="255.79729031109042" cy="-23.739719416992106" fill="#FF0000" r="1"/>
<circle cx="251.9813563843082" cy="-22.230058778410285" fill="#FF0000" r="1"/>
<circle cx="248.12643466810275" cy="-20.735559245949442" fill="#FF0000" r="1"/>
<circle cx="244.232961182188" cy="-19.25949561498787" fill="#FF0000" r="1"/>
<circle cx="240.30145957177476" cy="-17.80534497404595" fill="#FF0000" r="1"/>
<circle cx="236.3325463815497" cy="-16.376788499010335" fill="#FF0000" r="1"/>
<circle cx="232.32693635956727" cy="-14.977711963818747" fill="#FF0000" r="1"/>
<circle cx="228.2854477555106" cy="-13.612204795868143" fill="#FF0000" r="1"/>
<circle cx="224.20900757324662" cy="-12.284557498818637" fill="#FF0000" r="1"/>
<circle cx="220.09865673295423" cy="-10.999257262038398" fill="#FF0000" r="1"/>
<circle cx="215.9555550934021" cy="-9.760981575141768" fill="#FF0000" r="1"/>
<circle cx="211.78098628027095" cy="-8.57458966841178" fill="#FF0000" r="1"/>
<circle cx="207.57636226184025" cy="-7.445111605876621" fill="#FF0000" r="1"/>
<circle cx="203.34322760899676" cy="-6.377734867939137" fill="#FF0000" r="1"/>
<circle cx="199.08326337247732" cy="-5.377788275229045" fill="#FF0000" r="1"/>
<circle cx="194.79829050666922" cy="-4.4507231252155" fill="#FF0000" r="1"/>
<circle cx="190.49027276628416" cy="-3.602091438475252" fill="#FF0000" r="1"/>
<circle cx="186.1613189999507" cy="-2.8375212426656273" fill="#FF0000" r="1"/>
<circle cx="181.81368476338488" cy="-2.162688859391372" fill="#FF0000" r="1"/>
<circle cx="177.4497731744542" cy="-1.5832882023246944" fill="#FF0000" r="1"/>
<circle cx="173.0721349333059" cy="-1.1049971440069974" fill="#FF0000" r="1"/>
<circle cx="168.6834674329277" cy="-0.7334410633921927" fill="#FF0000" r="1"/>
<circle cx="164.2866128891938" cy="-0.4741537458181849" fill="#FF0000" r="1"/>
<circle cx="159.88455542473207" cy="-0.3325358708964439" fill="#FF0000" r="1"/>
<circle cx="155.48041704792854" cy="-0.3138113907061278" fill="#FF0000" r="1"/>
<circle cx="151.07745247712606" cy="-0.4229821693143081" fill="#FF0000" r="1"/>
<circle cx="146.67904277059534" cy="-0.6647813234019978" fill="#FF0000" r="1"/>
<circle cx="142.288687735142" cy="-1.043625770797358" fill="#FF0000" r="1"/>
<circle cx="137.90999710018735" cy="-1.5635685569373272" fill="#FF0000" r="1"/>
<circle cx="133.5466804596995" cy="-2.228251586474649" fill="#FF0000" r="1"/>
<circle cx="129.20253600126406" cy="-3.0408594361078545" fill="#FF0000" r="1"/>
<circle cx="124.88143805962925" cy="-4.004074962918095" fill="#FF0000" r="1"/>
<circle cx="120.58732355092693" cy="-5.120037447817037" fill="#FF0000" r="1"/>
<circle cx="116.324177363105" cy="-6.3903040241006615" fill="#FF0000" r="1"/>
<circle cx="112.09601679748985" cy="-7.815815134822995" fill="#FF0000" r="1"/>
<circle cx="107.9068751753876" cy="-9.396864738413223" fill="#FF0000" r="1"/>
<circle cx="103.76078474174565" cy="-11.133075938831293" fill="#FF0000" r="1"/>
<circle cx="99.66175901464274" cy="-13.023382654357881" fill="#FF0000" r="1"/>
<circle cx="95.61377474426605" cy="-15.066017858274556" fill="#FF0000" r="1"/>
<circle cx="91.62075365759895" cy="-17.258508826342858" fill="#FF0000" r="1"/>
<circle cx="87.68654417485116" cy="-19.59767971198468" fill="#FF0000" r="1"/>
<circle cx="83.81490329034332" cy="-22.079661642934987" fill="#FF0000" r="1"/>
<circle cx="80.00947881380733" cy="-24.69991039604025" fill="#FF0000" r="1"/>
<circle cx="76.27379216767501" cy="-27.453231563495102" fill="#FF0000" r="1"/>
<circle cx="72.61122193178682" cy="-30.33381297822363" fill="#FF0000" r="1"/>
<circle cx="69.02498831906126" cy="-33.33526402262963" fill="#FF0000" r="1"/>
<circle cx="65.51813875413417" cy="-36.45066130793048" fill="#FF0000" r="1"/>
<circle cx="62.09353471202734" cy="-39.67260008498507" fill="#FF0000" r="1"/>
<circle cx="58.753839955869374" cy="-42.99325063584672" fill="#FF0000" r="1"/>
<circle cx="55.50151029198909" cy="-46.40441880163897" fill="#FF0000" r="1"/>
<circle cx="52.338784937839705" cy="-49.8976097295487" fill="#FF0000" r="1"/>
<circle cx="49.26767957375734" cy="-53.46409387177343" fill="#FF0000" r="1"/>
<circle cx="46.28998112411642" cy="-57.094974243320465" fill="#FF0000" r="1"/>
<circle cx="43.407244287647444" cy="-60.78125394392899" fill="#FF0000" r="1"/>
<circle cx="40.62078981114965" cy="-64.51390297148626" fill="#FF0000" r="1"/>
<circle cx="37.93170447616277" cy="-68.28392339873146" fill="#FF0000" r="1"/>
<circle cx="35.340842744907505" cy="-72.0824120496435" fill="#FF0000" r="1"/>
<circle cx="32.84882999045375" cy="-75.90061989393655" fill="#FF0000" r="1"/>
<circle cx="30.456067217038008" cy="-79.73000747431894" fill="#FF0000" r="1"/>
<circle cx="28.16273716004957" cy="-83.562295788075" fill="#FF0000" r="1"/>
<circle cx="25.96881164167017" cy="-87.38951215843191" fill="#FF0000" r="1"/>
<circle cx="23.874060047615256" cy="-91.2040307484137" fill="#FF0000" r="1"/>
<circle cx="21.87805878293006" cy="-94.99860748696332" fill="#FF0000" r="1"/>
<circle cx="19.980201560294198" cy="-98.76640929081809" fill="#FF0000" r="1"/>
<circle cx="18.179710372659134" cy="-102.50103757312812" fill="#FF0000" r="1"/>
<circle cx="16.475647003092792" cy="-106.1965461287449" fill="#FF0000" r="1"/>
<circle cx="14.866924928189224" cy="-109.84745357462177" fill="#FF0000" r="1"/>
<circle cx="13.352321477027765" cy="-113.44875060051722" fill="#FF0000" r="1"/>
<circle cx="11.930490115123844" cy="-116.99590234935684" fill="#FF0000" r="1"/>
<circle cx="10.59997273176651" cy="-120.48484629784969" fill="#FF0000" r="1"/>
<circle cx="9.359211819256343" cy="-123.91198604637033" fill="#FF0000" r="1"/>
<circle cx="8.206562443511512" cy="-127.27418145318826" fill="#FF0000" r="1"/>
<circle cx="7.140303916991382" cy="-130.56873556264085" fill="#FF0000" r="1"/>
<circle cx="6.15865109660793" cy="-133.79337878083888" fill="#FF0000" r="1"/>
<circle cx="5.259765241000284" cy="-136.94625074716853" fill="#FF0000" r="1"/>
<circle cx="4.441764373009106" cy="-140.02588033651838" fill="#FF0000" r="1"/>
<circle cx="3.7027331042169855" cy="-143.03116420717234" fill="#FF0000" r="1"/>
<circle cx="3.040731888863644" cy="-145.96134428401726" fill="#FF0000" r="1"/>
<circle cx="2.453805684177322" cy="-148.81598453741327" fill="#FF0000" r="1"/>
<circle cx="1.9399920031009594" cy="-151.5949473859839" fill="#FF0000" r="1"/>
<circle cx="1.4973283534731396" cy="-154.29837001780257" fill="#FF0000" r="1"/>
<circle cx="1.1238590649203317" cy="-156.9266408899649" fill="#FF0000" r="1"/>
<circle cx="0.8176415110181081" cy="-159.4803766321795" fill="#FF0000" r="1"/>
<circle cx="0.5767517397021839" cy="-161.96039954649788" fill="#FF0000" r="1"/>
<circle cx="0.399289529478098" cy="-164.36771586319685" fill="#FF0000" r="1"/>
<circle cx="0.28338289274166384" cy="-166.70349488257577" fill="#FF0000" r="1"/>
<circle cx="0.22719205052289013" cy="-168.96904910435018" fill="#FF0000" r="1"/>
<circle cx="0.22891290527479463" cy="-171.1658154206395" fill="#FF0000" r="1"/>
<circle cx="0.2867800399986533" cy="-173.29533742537294" fill="#FF0000" r="1"/>
<circle cx="0.39906927310152157" cy="-175.3592488723295" fill="#FF0000" r="1"/>
<circle cx="0.564099798982977" cy="-177.3592582959533" fill="#FF0000" r="1"/>
<circle cx="0.7802359445135579" cy="-179.29713479347768" fill="#FF0000" r="1"/>
<circle cx="1.0458885713559372" cy="-181.17469495362846" fill="#FF0000" r="1"/>
<circle cx="1.3595161535547788" cy="-182.99379090611808" fill="#FF0000" r="1"/>
<circle cx="1.719625559034939" cy="-184.75629945711268" fill="#FF0000" r="1"/>
<circle cx="2.1247725626493903" cy="-186.4641122686839" fill="#FF0000" r="1"/>
<circle cx="2.573562117259386" cy="-188.11912703475105" fill="#FF0000" r="1"/>
<circle cx="3.0646484080419114" cy="-189.72323960199617" fill="#FF0000" r="1"/>
<circle cx="3.596734713848684" cy="-191.2783369815129" fill="#FF0000" r="1"/>
<circle cx="4.168573098011757" cy="-192.7862911953527" fill="#FF0000" r="1"/>
<circle cx="4.7789639495331615" cy="-194.24895390149797" fill="#FF0000" r="1"/>
<circle cx="5.426755394132942" cy="-195.66815174096544" fill="#FF0000" r="1"/>
<circle cx="6.110842593179188" cy="-197.04568235158902" fill="#FF0000" r="1"/>
<circle cx="6.830166947103027" cy="-198.38331099442064" fill="#FF0000" r="1"/>
<circle cx="7.58371521852141" cy="-199.68276774050543" fill="#FF0000" r="1"/>
<circle cx="8.370518588962495" cy="-200.9457451679436" fill="#FF0000" r="1"/>
<circle cx="9.18965166182003" cy="-202.1738965215431" fill="#FF0000" r="1"/>
<circle cx="10.040231422957566" cy="-203.36883428993661" fill="#FF0000" r="1"/>
<circle cx="10.921416169247312" cy="-204.53212915770652" fill="#FF0000" r="1"/>
<circle cx="11.832404414261793" cy="-205.6653092927819" fill="#FF0000" r="1"/>
<circle cx="12.77243377934003" cy="-206.7698599321031" fill="#FF0000" r="1"/>
<circle cx="13.740779877324936" cy="-207.84722323124353" fill="#FF0000" r="1"/>
<circle cx="14.73675519541218" cy="-208.89879834631753" fill="#FF0000" r="1"/>
<circle cx="15.75970798276156" cy="-209.9259417190552" fill="#FF0000" r="1"/>
<circle cx="16.80902114779863" cy="-210.92996753837713" fill="#FF0000" r="1"/>
<circle cx="17.884111169471367" cy="-211.9121483541395" fill="#FF0000" r="1"/>
<circle cx="18.984427026125374" cy="-212.87371582093314" fill="#FF0000" r="1"/>
<circle cx="20.109449145112546" cy="-213.81586155190493" fill="#FF0000" r="1"/>
<circle cx="21.25868837575485" cy="-214.73973806452253" fill="#FF0000" r="1"/>
<circle cx="22.43168498783842" cy="-215.64645980202377" fill="#FF0000" r="1"/>
<circle cx="23.62800769741335" cy="-216.5371042159803" fill="#FF0000" r="1"/>
<circle cx="24.847252721316792" cy="-217.4127128969681" fill="#FF0000" r="1"/>
<circle cx="26.089042861517562" cy="-218.27429274177086" fill="#FF0000" r="1"/>
<circle cx="27.353026620097708" cy="-219.1228171468645" fill="#FF0000" r="1"/>
<circle cx="28.638877345435617" cy="-219.95922721912976" fill="#FF0000" r="1"/>
<circle cx="29.946292409934436" cy="-220.78443299584046" fill="#FF0000" r="1"/>
<circle cx="31.274992419446587" cy="-221.599314666966" fill="#FF0000" r="1"/>
<circle cx="32.62472045437538" cy="-222.4047237937267" fill="#FF0000" r="1"/>
<circle cx="33.995241342288615" cy="-223.20148451815106" fill="#FF0000" r="1"/>
<circle cx="35.38634096175174" cy="-223.99039475910945" fill="#FF0000" r="1"/>
<circle cx="36.7978255769794" cy="-224.77222739094844" fill="#FF0000" r="1"/>
<circle cx="38.229521202810666" cy="-225.54773140143107" fill="#FF0000" r="1"/>
<circle cx="39.68127299943511" cy="-226.31763302619632" fill="#FF0000" r="1"/>
<circle cx="41.15294469622966" cy="-227.08263685740985" fill="#FF0000" r="1"/>
<circle cx="42.64441804401149" cy="-227.84342692466913" fill="#FF0000" r="1"/>
<circle cx="44.15559229496595" cy="-228.60066774657702" fill="#FF0000" r="1"/>
<circle cx="45.68638370947164" cy="-229.35500535169436" fill="#FF0000" r="1"/>
<circle cx="47.23672508901457" cy="-230.10706826784218" fill="#FF0000" r="1"/>
<circle cx="48.80656533435893" cy="-230.85746847893944" fill="#FF0000" r="1"/>
<circle cx="50.395869028124196" cy="-231.6068023487491" fill="#FF0000" r="1"/>
<circle cx="52.00461604090301" cy="-232.35565151105212" fill="#FF0000" r="1"/>
<circle cx="53.6328011600441" cy="-233.10458372589383" fill="#FF0000" r="1"/>
<circle cx="55.28043374021608" cy="-233.85415370163827" fill="#FF0000" r="1"/>
<circle cx="56.947537374861874" cy="-234.6049038826382" fill="#FF0000" r="1"/>
<circle cx="58.634149587650114" cy="-235.3573652023743" fill="#FF0000" r="1"/>
<circle cx="60.340321543024864" cy="-236.1120578019426" fill="#FF0000" r="1"/>
<circle cx="62.06611777495322" cy="-236.8694917137785" fill="#FF0000" r="1"/>
<circle cx="63.81161593296689" cy="-237.63016751049258" fill="#FF0000" r="1"/>
<circle cx="65.57690654458996" cy="-238.3945769186675" fill="#FF0000" r="1"/>
<circle cx="67.36209279324132" cy="-239.16320339742308" fill="#FF0000" r="1"/>
<circle cx="69.1672903106934" cy="-239.93652268149808" fill="#FF0000" r="1"/>
<circle cx="70.99262698316276" cy="-240.71500328852778" fill="#FF0000" r="1"/>
<circle cx="72.83824277009728" cy="-241.49910699011176" fill="#FF0000" r="1"/>
<circle cx="74.70428953471402" cy="-242.28928924616937" fill="#FF0000" r="1"/>
<circle cx="76.59093088532687" cy="-243.0859996019727" fill="#FF0000" r="1"/>
<circle cx="78.4983420264853" cy="-243.8896820471251" fill="#FF0000" r="1"/>
<circle cx="80.42670961892622" cy="-244.7007753356215" fill="#FF0000" r="1"/>
<circle cx="82.37623164731454" cy="-245.51971326598294" fill="#FF0000" r="1"/>
<circle cx="84.34711729472197" cy="-246.34692492030211" fill="#FF0000" r="1"/>
<circle cx="86.3395868227599" cy="-247.18283486086995" fill="#FF0000" r="1"/>
<circle cx="88.35387145624563" cy="-248.02786328287598" fill="#FF0000" r="1"/>
<circle cx="90.39021327124021" cy="-248.88242612148278" fill="#FF0000" r="1"/>
<circle cx="92.44886508524846" cy="-249.7469351113769" fill="#FF0000" r="1"/>
<circle cx="94.5300903483208" cy="-250.62179779668193" fill="#FF0000" r="1"/>
<circle cx="96.6341630337375" cy="-251.50741748889686" fill="#FF0000" r="1"/>
<circle cx="98.7613675268936" cy="-252.40419317028318" fill="#FF0000" r="1"/>
<circle cx="100.9119985109312" cy="-253.31251933987832" fill="#FF0000" r="1"/>
<circle cx="103.08636084759053" cy="-254.2327857990478" fill="#FF0000" r="1"/>
<circle cx="105.28476945166636" cy="-255.16537737321926" fill="#FF0000" r="1"/>
<circle cx="107.50754915736655" cy="-256.1106735661534" fill="#FF0000" r="1"/>
<circle cx="109.75503457476995" cy="-257.0690481428136" fill="#FF0000" r="1"/>
<circle cx="112.02756993447572" cy="-258.0408686365852" fill="#FF0000" r="1"/>
<circle cx="114.32550891842101" cy="-259.02649577628097" fill="#FF0000" r="1"/>
<circle cx="116.64921447472172" cy="-260.02628282804005" fill="#FF0000" r="1"/>
<circle cx="118.99905861425893" cy="-261.04057484689224" fill="#FF0000" r="1"/>
<circle cx="121.37542218659492" cy="-262.06970783241735" fill="#FF0000" r="1"/>
<circle cx="123.77869463265176" cy="-263.1140077825815" fill="#FF0000" r="1"/>
<circle cx="126.2092737114287" cy="-264.1737896394804" fill="#FF0000" r="1"/>
<circle cx="128.6675651978666" cy="-265.2493561203701" fill="#FF0000" r="1"/>
<circle cx="131.15398254879184" cy="-266.3409964270151" fill="#FF0000" r="1"/>
<circle cx="133.6689465336858" cy="-267.4489848260445" fill="#FF0000" r="1"/>
<circle cx="136.2128848268332" cy="-268.57357909267364" fill="#FF0000" r="1"/>
<circle cx="138.78623155719959" cy="-269.7150188098371" fill="#FF0000" r="1"/>
<circle cx="141.38942681217765" cy="-270.873523514486" fill="#FF0000" r="1"/>
<circle cx="144.0229160911251" cy="-272.04929068254114" fill="#FF0000" r="1"/>
<circle cx="146.68714970439328" cy="-273.2424935437695" fill="#FF0000" r="1"/>
<circle cx="149.38258211331598" cy="-274.45327871767773" fill="#FF0000" r="1"/>
<circle cx="152.10967120639583" cy="-275.6817636613937" fill="#FF0000" r="1"/>
<circle cx="154.86887750669064" cy="-276.92803392046477" fill="#FF0000" r="1"/>
<circle cx="157.66066330516654" cy="-278.19214017353454" fill="#FF0000" r="1"/>
<circle cx="160.48549171455295" cy="-279.47409506199506" fill="#FF0000" r="1"/>
<circle cx="163.34382563800528" cy="-280.7738697959681" fill="#FF0000" r="1"/>
<circle cx="166.23612664666302" cy="-282.09139052835246" fill="#FF0000" r="1"/>
<circle cx="169.1628537599832" cy="-283.42653448922255" fill="#FF0000" r="1"/>
<circle cx="172.1244621225375" cy="-284.7791258735868" fill="#FF0000" r="1"/>
<circle cx="175.12140157079327" cy="-286.148931476445" fill="#FF0000" r="1"/>
<circle cx="178.15411508325576" cy="-287.5356560702452" fill="#FF0000" r="1"/>
<circle cx="181.22303710723946" cy="-288.93893752126496" fill="#FF0000" r="1"/>
<circle cx="184.32859175547054" cy="-290.3583416431588" fill="#FF0000" r="1"/>
<circle cx="187.4711908657007" cy="-291.7933567879553" fill="#FF0000" r="1"/>
<circle cx="190.65123191655343" cy="-293.2433881771936" fill="#FF0000" r="1"/>
<circle cx="193.86909579292907" cy="-294.70775197868335" fill="#FF0000" r="1"/>
<circle cx="197.1251443944783" cy="-296.18566913761214" fill="#FF0000" r="1"/>
<circle cx="200.4197180809303" cy="-297.6762589744198" fill="#FF0000" r="1"/>
<circle cx="203.75313294843713" cy="-299.17853256607" fill="#FF0000" r="1"/>
<circle cx="207.1256779315893" cy="-300.6913859320937" fill="#FF0000" r="1"/>
<circle cx="210.53761172638224" cy="-302.21359305209654" fill="#FF0000" r="1"/>
<circle cx="213.98915953018187" cy="-303.7437987473321" fill="#FF0000" r="1"/>
<circle cx="217.48050959566896" cy="-305.28051146547716" fill="#FF0000" r="1"/>
<circle cx="221.0118095968509" cy="-306.8220960149002" fill="#FF0000" r="1"/>
<circle cx="224.58316280653088" cy="-308.3667663025104" fill="#FF0000" r="1"/>
<circle cx="228.19462408614035" cy="-309.9125781376858" fill="#FF0000" r="1"/>
<circle cx="231.8461956905755" cy="-311.4574221737899" fill="#FF0000" r="1"/>
<circle cx="235.5378228926636" cy="-312.9990170683484" fill="#FF0000" r="1"/>
<circle cx="239.26938943411528" cy="-314.53490295300253" fill="#FF0000" r="1"/>
<circle cx="243.0407128123226" cy="-316.06243531479896" fill="#FF0000" r="1"/>
<circle cx="246.8515394151356" cy="-317.57877940108716" fill="#FF0000" r="1"/>
<circle cx="250.70153951880656" cy="-319.0809052711344" fill="#FF0000" r="1"/>
<circle cx="254.590302167625" cy="-320.565583628335" fill="#FF0000" r="1"/>
<circle cx="258.51732995737785" cy="-322.0293825773692" fill="#FF0000" r="1"/>
<circle cx="262.4820337486452" cy="-323.46866546058226" fill="#FF0000" r="1"/>
<circle cx="266.4837273400627" cy="-324.87958993690324" fill="#FF0000" r="1"/>
<circle cx="270.52162213602355" cy="-326.2581084744494" fill="#FF0000" r="1"/>
<circle cx="274.5948218478144" cy="-327.59997043417167" fill="#FF0000" r="1"/>
<circle cx="278.7023172718387" cy="-328.9007259260599" fill="#FF0000" r="1"/>
<circle cx="282.84298119331237" cy="-330.1557316210688" fill="#FF0000" r="1"/>
<circle cx="287.01556346855324" cy="-331.3601587005581" fill="#FF0000" r="1"/>
<circle cx="291.2186863436416" cy="-332.5090031201455" fill="#FF0000" r="1"/>
<circle cx="295.45084007170414" cy="-333.59709835593435" fill="#FF0000" r="1"/>
<circle cx="299.71037889525775" cy="-334.6191307875932" fill="#FF0000" r="1"/>
<circle cx="303.9955174638204" cy="-335.56965785425905" fill="#FF0000" r="1"/>
<circle cx="308.304327760214" cy="-336.4431290952926" fill="#FF0000" r="1"/>
<circle cx="312.6347366115041" cy="-337.2339101581877" fill="#FF0000" r="1"/>
<circle cx="316.9845238622002" cy="-337.9363098202119" fill="#FF0000" r="1"/>
<circle cx="321.35132128799756" cy="-338.5446100285219" fill="#FF0000" r="1"/>
<circle cx="325.73261232785154" cy="-339.05309891565605" fill="#FF0000" r="1"/>
<circle cx="330.1257327103567" cy="-339.45610669371064" fill="#FF0000" r="1"/>
<circle cx="334.52787204713155" cy="-339.74804427168715" fill="#FF0000" r="1"/>
<circle cx="338.9360764610512" cy="-339.92344437718106" fill="#FF0000" r="1"/>
<circle cx="343.34725231062356" cy="-339.97700489681324" fill="#FF0000" r="1"/>
<circle cx="347.7581710634974" cy="-339.9036340808527" fill="#FF0000" r="1"/>
<circle cx="352.1654753619852" cy="-339.6984971879225" fill="#FF0000" r="1"/>
<circle cx="356.56568631158683" cy="-339.3570640773221" fill="#FF0000" r="1"/>
<circle cx="360.9552120098767" cy="-338.8751571913827" fill="#FF0000" r="1"/>
<circle cx="365.3303573178634" cy="-338.24899931059775" fill="#FF0000" r="1"/>
<circle cx="369.6873348592443" cy="-337.4752604123702" fill="#FF0000" r="1"/>
<circle cx="374.02227721505744" cy="-336.55110292243455" fill="#FF0000" r="1"/>
<circle cx="378.33125026240754" cy="-335.4742246186418" fill="#FF0000" r="1"/>
<circle cx="382.61026758652844" cy="-334.24289843197073" fill="#FF0000" r="1"/>
<circle cx="386.8553058758682" cy="-332.8560083912034" fill="#FF0000" r="1"/>
<circle cx="391.06232119057523" cy="-331.3130809771553" fill="#FF0000" r="1"/>
<circle cx="395.227265976205" cy="-329.6143111906686" fill="#FF0000" r="1"/>
<circle cx="399.34610667715896" cy="-327.7605826961653" fill="#FF0000" r="1"/>
<circle cx="403.41484178878994" cy="-325.75348147917407" fill="#FF0000" r="1"/>
<circle cx="407.4295201737669" cy="-323.5953025509306" fill="#FF0000" r="1"/>
<circle cx="411.38625945761044" cy="-321.2890493442355" fill="#FF0000" r="1"/>
<circle cx="415.28126431070086" cy="-318.8384255698509" fill="#FF0000" r="1"/>
<circle cx="419.1108444198373" cy="-316.24781943879975" fill="#FF0000" r="1"/>
<circle cx="422.87143195183165" cy="-313.5222802993837" fill="#FF0000" r="1"/>
<circle cx="426.5595983147932" cy="-310.6674878845569" fill="#FF0000" r="1"/>
<circle cx="430.17207002973254" cy="-307.68971451112793" fill="#FF0000" r="1"/>
<circle cx="433.70574353579593" cy="-304.5957807127263" fill="#FF0000" r="1"/>
<circle cx="437.15769876665036" cy="-301.39300491920255" fill="#FF0000" r="1"/>
<circle cx="440.5252113529577" cy="-298.08914791207474" fill="#FF0000" r="1"/>
<circle cx="443.80576332610656" cy="-294.69235288518576" fill="#FF0000" r="1"/>
<circle cx="446.99705222091904" cy="-291.21108201888825" fill="#FF0000" r="1"/>
<circle cx="450.0969984993608" cy="-287.65405053258746" fill="#FF0000" r="1"/>
<circle cx="453.1037512427435" cy="-284.0301592129307" fill="#FF0000" r="1"/>
<circle cx="456.0156920859012" cy="-280.3484264228116" fill="#FF0000" r="1"/>
<circle cx="458.8314373926957" cy="-276.61792058002254" fill="#FF0000" r="1"/>
<circle cx="461.54983869736526" cy="-272.84769405506495" fill="#FF0000" r="1"/>
<circle cx="464.169981460091" cy="-269.04671937729194" fill="#FF0000" r="1"/>
<circle cx="466.6911822072135" cy="-265.22382855986825" fill="#FF0000" r="1"/>
<circle cx="469.11298414635337" cy="-261.3876562601297" fill="#FF0000" r="1"/>
<circle cx="471.43515136391267" cy="-257.54658738633043" fill="#FF0000" r="1"/>
<circle cx="473.65766172682595" cy="-253.70870964817146" fill="#FF0000" r="1"/>
<circle cx="475.7806986218033" cy="-249.88177143062515" fill="#FF0000" r="1"/>
<circle cx="477.8046416736246" cy="-246.07314525201414" fill="#FF0000" r="1"/>
<circle cx="479.7300565893114" cy="-242.28979695138565" fill="#FF0000" r="1"/>
<circle cx="481.55768427733415" cy="-238.53826063991704" fill="#FF0000" r="1"/>
<circle cx="483.2884293905936" cy="-234.82461934890554" fill="#FF0000" r="1"/>
<circle cx="484.92334843896157" cy="-231.15449121483712" fill="#FF0000" r="1"/>
<circle cx="486.46363761199086" cy="-227.53302096158748" fill="#FF0000" r="1"/>
<circle cx="487.91062044528786" cy="-223.96487637192703" fill="#FF0000" r="1"/>
<circle cx="489.2657354553451" cy="-220.4542493856486" fill="#FF0000" r="1"/>
<circle cx="490.53052385766966" cy="-217.00486141980235" fill="#FF0000" r="1"/>
<circle cx="491.70661747216946" cy="-213.61997247731298" fill="#FF0000" r="1"/>
<circle cx="492.79572690827285" cy="-210.30239359293768" fill="#FF0000" r="1"/>
<circle cx="493.79963011046834" cy="-207.0545021591024" fill="#FF0000" r="1"/>
<circle cx="494.72016133312104" cy="-203.87825967745263" fill="#FF0000" r="1"/>
<circle cx="495.5592006017843" cy="-200.7752314936565" fill="#FF0000" r="1"/>
<circle cx="496.31866370698447" cy="-197.74660809174978" fill="#FF0000" r="1"/>
<circle cx="497.00049276577755" cy="-194.79322754873323" fill="#FF0000" r="1"/>
<circle cx="497.60664737638194" cy="-191.9155987789002" fill="#FF0000" r="1"/>
<circle cx="498.13909638199306" cy="-189.113925229235" fill="#FF0000" r="1"/>
<circle cx="498.5998102515296" cy="-186.3881287210328" fill="#FF0000" r="1"/>
<circle cx="498.9907540776025" cy="-183.7378731676338" fill="#FF0000" r="1"/>
<circle cx="499.31388118543515" cy="-181.16258793294827" fill="#FF0000" r="1"/>
<circle cx="499.5711273408023" cy="-178.66149062953522" fill="#FF0000" r="1"/>
<circle cx="499.76440554025265" cy="-176.23360918777425" fill="#FF0000" r="1"/>
<circle cx="499.895601362912" cy="-173.87780305866465" fill="#FF0000" r="1"/>
<circle cx="499.96656885997004" cy="-171.59278344164537" fill="#FF0000" r="1"/>
<circle cx="499.9791269554795" cy="-169.37713245531046" fill="#FF0000" r="1"/>
<circle cx="499.93505633027297" cy="-167.22932119285335" fill="#FF0000" r="1"/>
<circle cx="499.83609675957365" cy="-165.14772662544897" fill="#FF0000" r="1"/>
<circle cx="499.6839448741628" cy="-163.13064733558105" fill="#FF0000" r="1"/>
<circle cx="499.48025231471274" cy="-161.17631807861298" fill="#FF0000" r="1"/>
<circle cx="499.2266242490285" cy="-159.28292318478745" fill="#FF0000" r="1"/>
<circle cx="498.9246182224108" cy="-157.4486088254711" fill="#FF0000" r="1"/>
<circle cx="498.5757433120932" cy="-155.67149417699733" fill="#FF0000" r="1"/>
<circle cx="498.18145955767085" cy="-153.9496815230829" fill="#FF0000" r="1"/>
<circle cx="497.7431776405798" cy="-152.2812653426926" fill="#FF0000" r="1"/>
<circle cx="497.2622587869578" cy="-150.66434043458622" fill="#FF0000" r="1"/>
<circle cx="496.7400148695865" cy="-149.0970091327904" fill="#FF0000" r="1"/>
<circle cx="496.17770868604805" cy="-147.57738766907102" fill="#FF0000" r="1"/>
<circle cx="495.57655439169247" cy="-146.103611739312" fill="#FF0000" r="1"/>
<circle cx="494.93771806749277" cy="-144.6738413306837" fill="#FF0000" r="1"/>
<circle cx="494.2623184043284" cy="-143.28626486576042" fill="#FF0000" r="1"/>
<circle cx="493.55142748668004" cy="-141.93910271844368" fill="#FF0000" r="1"/>
<circle cx="492.8060716601196" cy="-140.63061015479215" fill="#FF0000" r="1"/>
<circle cx="492.02723246833114" cy="-139.35907974974327" fill="#FF0000" r="1"/>
<circle cx="491.2158476466875" cy="-138.12284332833664" fill="#FF0000" r="1"/>
<circle cx="490.3728121606407" cy="-136.92027347748606" fill="#FF0000" r="1"/>
<circle cx="489.4989792783409" cy="-135.7497846716658" fill="#FF0000" r="1"/>
<circle cx="488.5951616679897" cy="-134.60983405313488" fill="#FF0000" r="1"/>
<circle cx="487.66213251145336" cy="-133.49892190456518" fill="#FF0000" r="1"/>
<circle cx="486.70062662660706" cy="-132.41559184920808" fill="#FF0000" r="1"/>
<circle cx="485.7113415917605" cy="-131.35843081105563" fill="#FF0000" r="1"/>
<circle cx="484.6949388663218" cy="-130.32606876485806" fill="#FF0000" r="1"/>
<circle cx="483.6520449026009" cy="-129.31717830336146" fill="#FF0000" r="1"/>
<circle cx="482.58325224433156" cy="-128.33047404674645" fill="#FF0000" r="1"/>
<circle cx="481.4891206081138" cy="-127.36471191698973" fill="#FF0000" r="1"/>
<circle cx="480.37017794453374" cy="-126.4186882977394" fill="#FF0000" r="1"/>
<circle cx="479.22692147623394" cy="-125.49123909829859" fill="#FF0000" r="1"/>
<circle cx="478.0598187106617" cy="-124.58123873844872" fill="#FF0000" r="1"/>
<circle cx="476.8693084256331" cy="-123.68759906911293" fill="#FF0000" r="1"/>
<circle cx="475.6558016262258" cy="-122.80926824226125" fill="#FF0000" r="1"/>
<circle cx="474.4196824718329" cy="-121.94522954198386" fill="#FF0000" r="1"/>
<circle cx="473.1613091725111" cy="-121.09450018730772" fill="#FF0000" r="1"/>
<circle cx="471.8810148540086" cy="-120.2561301160945" fill="#FF0000" r="1"/>
<circle cx="470.57910839108933" cy="-119.42920075823277" fill="#FF0000" r="1"/>
<circle cx="469.2558752089692" cy="-118.6128238053138" fill="#FF0000" r="1"/>
<circle cx="467.9115780528527" cy="-117.80613998305651" fill="#FF0000" r="1"/>
<circle cx="466.5464577257142" cy="-117.00831783191376" fill="#FF0000" r="1"/>
<circle cx="465.1607337945949" cy="-116.21855250054253" fill="#FF0000" r="1"/>
<circle cx="463.75460526580247" cy="-115.43606455615233" fill="#FF0000" r="1"/>
<circle cx="462.32825122949646" cy="-114.6600988151481" fill="#FF0000" r="1"/>
<circle cx="460.88183147422103" cy="-113.8899231969554" fill="#FF0000" r="1"/>
<circle cx="459.4154870720223" cy="-113.12482760344713" fill="#FF0000" r="1"/>
<circle cx="457.92934093483655" cy="-112.36412282598111" fill="#FF0000" r="1"/>
<circle cx="456.42349834289075" cy="-111.60713948169878" fill="#FF0000" r="1"/>
<circle cx="454.89804744589037" cy="-110.85322698042438" fill="#FF0000" r="1"/>
<circle cx="453.3530597378029" cy="-110.10175252323621" fill="#FF0000" r="1"/>
<circle cx="451.7885905060711" cy="-109.35210013355477" fill="#FF0000" r="1"/>
<circle cx="450.20467925610757" cy="-108.60366972140017" fill="#FF0000" r="1"/>
<circle cx="448.6013501119378" cy="-107.8558761813137" fill="#FF0000" r="1"/>
<circle cx="446.9786121938711" cy="-107.10814852430994" fill="#FF0000" r="1"/>
<circle cx="445.33645997408536" cy="-106.35992904412572" fill="#FF0000" r="1"/>
<circle cx="443.67487361101894" cy="-105.61067251795643" fill="#FF0000" r="1"/>
<circle cx="441.9938192634663" cy="-104.85984544181836" fill="#FF0000" r="1"/>
<circle cx="440.2932493852774" cy="-104.10692530064509" fill="#FF0000" r="1"/>
<circle cx="438.57310300156394" cy="-103.35139987321341" fill="#FF0000" r="1"/>
<circle cx="436.8333059673177" cy="-102.59276657200229" fill="#FF0000" r="1"/>
<circle cx="435.0737712093494" cy="-101.83053181811064" fill="#FF0000" r="1"/>
<circle cx="433.2943989524601" cy="-101.06421045139864" fill="#FF0000" r="1"/>
<circle cx="431.4950769307622" cy="-100.29332517607214" fill="#FF0000" r="1"/>
<circle cx="429.6756805850738" cy="-99.51740604199593" fill="#FF0000" r="1"/>
<circle cx="427.8360732473189" cy="-98.73598996210306" fill="#FF0000" r="1"/>
<circle cx="425.9761063128753" cy="-97.94862026636042" fill="#FF0000" r="1"/>
<circle cx="424.0956194018277" cy="-97.15484629285746" fill="#FF0000" r="1"/>
<circle cx="422.19444051009765" cy="-96.35422301670056" fill="#FF0000" r="1"/>
<circle cx="420.2723861514415" cy="-95.5463107175269" fill="#FF0000" r="1"/>
<circle cx="418.32926149133385" cy="-94.73067468659067" fill="#FF0000" r="1"/>
<circle cx="416.3648604737739" cy="-93.90688497452788" fill="#FF0000" r="1"/>
<circle cx="414.3789659420908" cy="-93.07451618106828" fill="#FF0000" r="1"/>
<circle cx="412.37134975485293" cy="-92.23314728813926" fill="#FF0000" r="1"/>
<circle cx="410.34177289803034" cy="-91.38236153799197" fill="#FF0000" r="1"/>
<circle cx="408.2899855946014" cy="-90.52174635817833" fill="#FF0000" r="1"/>
<circle cx="406.2157274128466" cy="-89.65089333541773" fill="#FF0000" r="1"/>
<circle cx="404.118727374628" cy="-88.76939824061313" fill="#FF0000" r="1"/>
<circle cx="401.99870406501464" cy="-87.87686110751017" fill="#FF0000" r="1"/>
<circle cx="399.8553657446801" cy="-86.97288636773865" fill="#FF0000" r="1"/>
<circle cx="397.6884104665771" cy="-86.05708304523239" fill="#FF0000" r="1"/>
<circle cx="395.4975261984709" cy="-85.12906501329381" fill="#FF0000" r="1"/>
<circle cx="393.28239095300376" cy="-84.18845131785052" fill="#FF0000" r="1"/>
<circle cx="391.042672927059" cy="-83.23486657074372" fill="#FF0000" r="1"/>
<circle cx="388.7780306522965" cy="-82.26794141719273" fill="#FF0000" r="1"/>
<circle cx="386.4881131588403" cy="-81.28731308189468" fill="#FF0000" r="1"/>
<circle cx="384.1725601542255" cy="-80.29262599854208" fill="#FF0000" r="1"/>
<circle cx="381.83100221983267" cy="-79.28353252787538" fill="#FF0000" r="1"/>
<circle cx="379.46306102717915" cy="-78.25969376972776" fill="#FF0000" r="1"/>
<circle cx="377.06834957658475" cy="-77.2207804748661" fill="#FF0000" r="1"/>
<circle cx="374.6464724608778" cy="-76.166474062783" fill="#FF0000" r="1"/>
<circle cx="372.19702615698014" cy="-75.09646775194615" fill="#FF0000" r="1"/>
<circle cx="369.7195993483765" cy="-74.01046780936151" fill="#FF0000" r="1"/>
<circle cx="367.213773281659" cy="-72.90819492665199" fill="#FF0000" r="1"/>
<circle cx="364.67912216052883" cy="-71.78938573018795" fill="#FF0000" r="1"/>
<circle cx="362.11521358083684" cy="-70.65379443312716" fill="#FF0000" r="1"/>
<circle cx="359.5216090104515" cy="-69.50119463752193" fill="#FF0000" r="1"/>
<circle cx="356.89786431795864" cy="-68.33138129492389" fill="#FF0000" r="1"/>
<circle cx="354.24353035442044" cy="-67.14417283415489" fill="#FF0000" r="1"/>
<circle cx="351.558153592647" cy="-65.93941346510688" fill="#FF0000" r="1"/>
<circle cx="348.841276828666" cy="-64.71697566757202" fill="#FF0000" r="1"/>
<circle cx="346.0924399503119" cy="-63.47676287417822" fill="#FF0000" r="1"/>
<circle cx="343.31118077808856" cy="-62.218712356499324" fill="#FF0000" r="1"/>
<circle cx="340.49703598369786" cy="-60.942798323308814" fill="#FF0000" r="1"/>
<circle cx="337.64954209185225" cy="-59.64903523973521" fill="#FF0000" r="1"/>
<circle cx="334.76823657121554" cy="-58.33748137573793" fill="#FF0000" r="1"/>
<circle cx="331.8526590205255" cy="-57.00824259183229" fill="#FF0000" r="1"/>
<circle cx="328.90235245615276" cy="-55.66147636933187" fill="#FF0000" r="1"/>
<circle cx="325.91686470752376" cy="-54.297396091518436" fill="#FF0000" r="1"/>
<circle cx="322.8957499269912" cy="-52.91627558106899" fill="#FF0000" r="1"/>
<circle cx="319.8385702208548" cy="-51.5184538977376" fill="#FF0000" r="1"/>
<circle cx="316.74489740831905" cy="-50.104340398674665" fill="#FF0000" r="1"/>
<circle cx="313.6143149152092" cy="-48.67442006183702" fill="#FF0000" r="1"/>
<circle cx="310.4464198092528" cy="-47.22925907066368" fill="#FF0000" r="1"/>
<circle cx="307.24082498364817" cy="-45.76951065552893" fill="#FF0000" r="1"/>
<circle cx="303.9971614954872" cy="-44.295921184400804" fill="#FF0000" r="1"/>
<circle cx="300.71508106535623" cy="-42.80933649159139" fill="#FF0000" r="1"/>
<circle cx="297.3942587440986" cy="-41.310708429451054" fill="#FF0000" r="1"/>
<circle cx="294.0343957522699" cy="-39.8011016232954" fill="#FF0000" r="1"/>
<circle cx="290.63522249723763" cy="-38.281700404730216" fill="#FF0000" r="1"/>
<circle cx="287.19650177216147" cy="-36.75381589282759" fill="#FF0000" r="1"/>
<circle cx="283.7180321402101" cy="-35.21889318628227" fill="#FF0000" r="1"/>
<circle cx="280.19965150633004" cy="-33.678518622725996" fill="#FF0000" r="1"/>
<circle cx="276.64124087763963" cy="-32.134427053792834" fill="#FF0000" r="1"/>
<circle cx="273.0427283120843" cy="-30.58850907631613" fill="#FF0000" r="1"/>
<circle cx="269.404093053327" cy="-29.04281815121804" fill="#FF0000" r="1"/>
<circle cx="265.7253698479472" cy="-27.499577532262848" fill="#FF0000" r="1"/>
<circle cx="262.00665343887607" cy="-25.96118691694524" fill="#FF0000" r="1"/>
<circle cx="258.2481032265825" cy="-24.430228721455535" fill="#FF0000" r="1"/>
<circle cx="254.44994808684146" cy="-22.90947387101642" fill="#FF0000" r="1"/>
<circle cx="250.6124913309552" cy="-21.4018869860616" fill="#FF0000" r="1"/>
<circle cx="246.73611579105358" cy="-19.9106308339007" fill="#FF0000" r="1"/>
<circle cx="242.82128900957932" cy="-18.439069904900055" fill="#FF0000" r="1"/>
<circle cx="238.86856850827263" cy="-16.99077296206002" fill="#FF0000" r="1"/>
<circle cx="234.87860710792674" cy="-15.569514403479522" fill="#FF0000" r="1"/>
<circle cx="230.85215826590954" cy="-14.179274268907633" fill="#FF0000" r="1"/>
<circle cx="226.7900813939799" cy="-12.824236714769869" fill="#FF0000" r="1"/>
<circle cx="222.69334711430292" cy="-11.508786777144529" fill="#FF0000" r="1"/>
<circle cx="218.56304240685049" cy="-10.237505239610472" fill="#FF0000" r="1"/>
<circle cx="214.4003755966254" cy="-9.01516142317884" fill="#FF0000" r="1"/>
<circle cx="210.20668112444997" cy="-7.8467037191666895" fill="#FF0000" r="1"/>
<circle cx="205.98342404050794" cy="-6.737247693388189" fill="#FF0000" r="1"/>
<circle cx="201.73220415552808" cy="-5.692061601940789" fill="#FF0000" r="1"/>
<circle cx="197.45475978057016" cy="-4.716549175636084" fill="#FF0000" r="1"/>
<circle cx="193.1529709829502" cy="-3.816229552208747" fill="#FF0000" r="1"/>
<circle cx="188.82886228306438" cy="-2.996714263201301" fill="#FF0000" r="1"/>
<circle cx="184.48460471489267" cy="-2.2636812161364337" fill="#FF0000" r="1"/>
<circle cx="180.12251717193817" cy="-1.622845652394588" fill="#FF0000" r="1"/>
<circle cx="175.74506696044503" cy="-1.0799281070933215" fill="#FF0000" r="1"/>
<circle cx="171.35486948309287" cy="-0.6406194490103658" fill="#FF0000" r="1"/>
<circle cx="166.95468697913122" cy="-0.3105431357773207" fill="#FF0000" r="1"/>
<circle cx="162.54742625123453" cy="-0.09521488152968767" fill="#FF0000" r="1"/>
<circle cx="158.1361353153279" cy="0" fill="#FF0000" r="1"/>
<circle cx="153.7239989173492" cy="-0.030068754485272256" fill="#FF0000" r="1"/>
<circle cx="149.31433287041918" cy="-0.1903501157326121" fill="#FF0000" r="1"/>
<circle cx="144.91057717719602" cy="-0.485484397835387" fill="#FF0000" r="1"/>
<circle cx="140.5162879152568" cy="-0.9197753087476542" fill="#FF0000" r="1"/>
<circle cx="136.13512787807795" cy="-1.4971420138488059" fill="#FF0000" r="1"/>
<circle cx="131.77085598043092" cy="-2.22107186582784" fill="#FF0000" r="1"/>
<circle cx="127.4273154545578" cy="-3.0945744996541906" fill="#FF0000" r="1"/>
<circle cx="123.10842088206536" cy="-4.1201380252327215" fill="#FF0000" r="1"/>
<circle cx="118.81814412575177" cy="-5.299688070304598" fill="#FF0000" r="1"/>
<circle cx="114.56049924516718" cy="-6.634550430289286" fill="#FF0000" r="1"/>
<circle cx="110.33952649917663" cy="-8.125418068447736" fill="#FF0000" r="1"/>
<circle cx="106.15927555767493" cy="-9.772323177817787" fill="#FF0000" r="1"/>
<circle cx="102.02378806240577" cy="-11.574614965216975" fill="#FF0000" r="1"/>
<circle cx="97.93707969306178" cy="-13.530943747246273" fill="#FF0000" r="1"/>
<circle cx="93.90312190900237" cy="-15.639251859373749" fill="#FF0000" r="1"/>
<circle cx="89.9258235485572" cy="-17.896771773263087" fill="#FF0000" r="1"/>
<circle cx="86.00901247657184" cy="-20.300031696691814" fill="#FF0000" r="1"/>
<circle cx="82.1564174762481" cy="-22.844868797503167" fill="#FF0000" r="1"/>
<circle cx="78.37165058316648" cy="-25.526450051480793" fill="#FF0000" r="1"/>
<circle cx="74.65819005747589" cy="-28.33930056773199" fill="#FF0000" r="1"/>
<circle cx="71.01936418453023" cy="-31.27733909835963" fill="#FF0000" r="1"/>
<circle cx="67.45833608478675" cy="-34.3339202963052" fill="#FF0000" r="1"/>
<circle cx="63.97808970071386" cy="-37.50188315064785" fill="#FF0000" r="1"/>
<circle cx="60.581417112058126" cy="-40.773604906529705" fill="#FF0000" r="1"/>
<circle cx="57.270907311463844" cy="-44.141059671029744" fill="#FF0000" r="1"/>
<circle cx="54.04893655058632" cy="-47.595880819950224" fill="#FF0000" r="1"/>
<circle cx="50.91766034303453" cy="-51.12942625612338" fill="#FF0000" r="1"/>
<circle cx="47.87900718530779" cy="-54.73284552919663" fill="#FF0000" r="1"/>
<circle cx="44.93467403098465" cy="-58.39714781073395" fill="#FF0000" r="1"/>
<circle cx="42.08612352741497" cy="-62.11326972681143" fill="#FF0000" r="1"/>
<circle cx="39.33458299868036" cy="-65.87214208214205" fill="#FF0000" r="1"/>
<circle cx="36.68104513421081" cy="-69.66475456339471" fill="#FF0000" r="1"/>
<circle cx="34.126270319713115" cy="-73.48221758233383" fill="#FF0000" r="1"/>
<circle cx="31.670790526437504" cy="-77.31582050869167" fill="#FF0000" r="1"/>
<circle cx="29.314914656666996" cy="-81.15708564488439" fill="#FF0000" r="1"/>
<circle cx="27.058735227943192" cy="-84.99781740613528" fill="#FF0000" r="1"/>
<circle cx="24.90213626613721" cy="-88.83014628654185" fill="#FF0000" r="1"/>
<circle cx="22.844802268128767" cy="-92.64656731046003" fill="#FF0000" r="1"/>
<circle cx="20.886228088575283" cy="-96.4399727858427" fill="#FF0000" r="1"/>
<circle cx="19.025729601955057" cy="-100.20367928876021" fill="#FF0000" r="1"/>
<circle cx="17.262454990597004" cy="-103.93144891357498" fill="#FF0000" r="1"/>
<circle cx="15.59539651154663" cy="-107.6175049189595" fill="#FF0000" r="1"/>
<circle cx="14.023402599594366" cy="-111.25654198447386" fill="#FF0000" r="1"/>
<circle cx="12.545190170301957" cy="-114.84373136462787" fill="#FF0000" r="1"/>
<circle cx="11.159356995079916" cy="-118.37472128662392" fill="#FF0000" r="1"/>
<circle cx="9.864394029953763" cy="-121.84563298416124" fill="#FF0000" r="1"/>
<circle cx="8.65869759027479" cy="-125.2530527930584" fill="#FF0000" r="1"/>
<circle cx="7.540581274956962" cy="-128.59402075564438" fill="#FF0000" r="1"/>
<circle cx="6.508287555551146" cy="-131.86601619079585" fill="#FF0000" r="1"/>
<circle cx="5.559998957324212" cy="-135.06694068629125" fill="#FF0000" r="1"/>
<circle cx="4.693848771246028" cy="-138.1950989610803" fill="#FF0000" r="1"/>
<circle cx="3.9079312471893664" cy="-141.2491780284889" fill="#FF0000" r="1"/>
<circle cx="3.200311229541814" cy="-144.22822506866729" fill="#FF0000" r="1"/>
<circle cx="2.5690332066684087" cy="-147.13162439109223" fill="#FF0000" r="1"/>
<circle cx="2.0121297551468054" cy="-149.95907383693546" fill="#FF0000" r="1"/>
<circle cx="1.5276293683435038" cy="-152.71056093779313" fill="#FF0000" r="1"/>
<circle cx="1.1135636666661692" cy="-155.38633911269767" fill="#FF0000" r="1"/>
<circle cx="0.7679739936912694" cy="-157.98690415043893" fill="#FF0000" r="1"/>
<circle cx="0.48891740833228264" cy="-160.5129711897964" fill="#FF0000" r="1"/>
<circle cx="0.2744720882981558" cy="-162.96545237698044" fill="#FF0000" r="1"/>
<circle cx="0.12274216433651883" cy="-165.34543534791948" fill="#FF0000" r="1"/>
<circle cx="0.03186200820204212" cy="-167.65416265340173" fill="#FF0000" r="1"/>
<circle cx="0" cy="-169.89301221776495" fill="#FF0000" r="1"/>
<circle cx="0.025361802586279958" cy="-172.06347889699754" fill="#FF0000" r="1"/>
<circle cx="0.10619317212594444" cy="-174.16715717986136" fill="#FF0000" r="1"/>
<circle cx="0.24078233478934868" cy="-176.20572505598022" fill="#FF0000" r="1"/>
<circle cx="0.4274619599636875" cy="-178.1809290577123" fill="#FF0000" r="1"/>
<circle cx="0.6646107603446328" cy="-180.094570467942" fill="#FF0000" r="1"/>
<circle cx="0.9506547489079276" cy="-181.94849267355684" fill="#FF0000" r="1"/>
<circle cx="1.2840681821029933" cy="-183.74456963415554" fill="#FF0000" r="1"/>
<circle cx="1.663374217712904" cy="-185.48469542729072" fill="#FF0000" r="1"/>
<circle cx="2.0871453147375716" cy="-187.1707748250977" fill="#FF0000" r="1"/>
<circle cx="2.5540034014211934" cy="-188.8047148523083" fill="#FF0000" r="1"/>
<circle cx="3.0626198362037025" cy="-190.3884172722125" fill="#FF0000" r="1"/>
<circle cx="3.611715184959592" cy="-191.9237719449256" fill="#FF0000" r="1"/>
<circle cx="4.200058836428455" cy="-193.41265100117667" fill="#FF0000" r="1"/>
<circle cx="4.826468476264984" cy="-194.8569037745903" fill="#FF0000" r="1"/>
<circle cx="5.489809438661953" cy="-196.25835243594355" fill="#FF0000" r="1"/>
<circle cx="6.188993953048048" cy="-197.61878827400585" fill="#FF0000" r="1"/>
<circle cx="6.92298030194506" cy="-198.93996856919145" fill="#FF0000" r="1"/>
<circle cx="7.690771904699781" cy="-200.2236140082625" fill="#FF0000" r="1"/>
<circle cx="8.491416340492107" cy="-201.47140659062276" fill="#FF0000" r="1"/>
<circle cx="9.324004322769667" cy="-202.68498797925517" fill="#FF0000" r="1"/>
<circle cx="10.187668636075376" cy="-203.86595825200584" fill="#FF0000" r="1"/>
<circle cx="11.081583045119743" cy="-205.01587501164948" fill="#FF0000" r="1"/>
<circle cx="12.0049611849066" cy="-206.13625281593076" fill="#FF0000" r="1"/>
<circle cx="12.957055439749965" cy="-207.22856289152267" fill="#FF0000" r="1"/>
<circle cx="13.937155818117928" cy="-208.2942330985437" fill="#FF0000" r="1"/>
<circle cx="14.944588829408724" cy="-209.33464811490504" fill="#FF0000" r="1"/>
<circle cx="15.97871636799856" cy="-210.35114981228963" fill="#FF0000" r="1"/>
<circle cx="17.038934609200833" cy="-211.3450377979929" fill="#FF0000" r="1"/>
<circle cx="18.124672921137286" cy="-212.31757009915384" fill="#FF0000" r="1"/>
<circle cx="19.235392795940495" cy="-213.26996396808494" fill="#FF0000" r="1"/>
<circle cx="20.370586803181336" cy="-214.2033967894488" fill="#FF0000" r="1"/>
<circle cx="21.52977756793943" cy="-215.11900707193976" fill="#FF0000" r="1"/>
<circle cx="22.712516775508465" cy="-216.0178955089044" fill="#FF0000" r="1"/>
<circle cx="23.91838420434482" cy="-216.90112609397747" fill="#FF0000" r="1"/>
<circle cx="25.146986788526252" cy="-217.7697272793276" fill="#FF0000" r="1"/>
<circle cx="26.39795771068413" cy="-218.62469316549885" fill="#FF0000" r="1"/>
<circle cx="27.670955526102585" cy="-219.46698471310955" fill="#FF0000" r="1"/>
<circle cx="28.96566331844077" cy="-220.29753096783256" fill="#FF0000" r="1"/>
<circle cx="30.281787887325347" cy="-221.11723029113733" fill="#FF0000" r="1"/>
<circle cx="31.6190589678774" cy="-221.9269515902325" fill="#FF0000" r="1"/>
<circle cx="32.97722848207945" cy="-222.72753554150785" fill="#FF0000" r="1"/>
<circle cx="34.35606982174961" cy="-223.51979580255536" fill="#FF0000" r="1"/>
<circle cx="35.75537716277167" cy="-224.3045202085408" fill="#FF0000" r="1"/>
<circle cx="37.174964810128266" cy="-225.08247194932002" fill="#FF0000" r="1"/>
<circle cx="38.614666573197425" cy="-225.8543907242447" fill="#FF0000" r="1"/>
<circle cx="40.07433517070044" cy="-226.62099387209" fill="#FF0000" r="1"/>
<circle cx="41.55384166462709" cy="-227.38297747396675" fill="#FF0000" r="1"/>
<circle cx="43.05307492241479" cy="-228.14101742745476" fill="#FF0000" r="1"/>
<circle cx="44.571941106615284" cy="-228.89577049052173" fill="#FF0000" r="1"/>
<circle cx="46.11036319125034" cy="-229.64787529407295" fill="#FF0000" r="1"/>
<circle cx="47.66828050402999" cy="-230.39795332221786" fill="#FF0000" r="1"/>
<circle cx="49.24564829358612" cy="-231.14660985954245" fill="#FF0000" r="1"/>
<circle cx="50.84243732085841" cy="-231.89443490484547" fill="#FF0000" r="1"/>
<circle cx="52.458633473756244" cy="-232.64200405093425" fill="#FF0000" r="1"/>
<circle cx="54.094237404212414" cy="-233.38987933018535" fill="#FF0000" r="1"/>
<circle cx="55.74926418673704" cy="-234.13861002565886" fill="#FF0000" r="1"/>
<circle cx="57.4237429975755" cy="-234.888733447614" fill="#FF0000" r="1"/>
<circle cx="59.11771681357113" cy="-235.64077567531297" fill="#FF0000" r="1"/>
<circle cx="60.831242129830336" cy="-236.3952522640158" fill="#FF0000" r="1"/>
<circle cx="62.56438869528531" cy="-237.15266891707026" fill="#FF0000" r="1"/>
<circle cx="64.31723926524691" cy="-237.91352212298162" fill="#FF0000" r="1"/>
<circle cx="66.08988937003704" cy="-238.6782997573134" fill="#FF0000" r="1"/>
<circle cx="67.88244709878452" cy="-239.44748164922214" fill="#FF0000" r="1"/>
<circle cx="69.69503289746383" cy="-240.2215401123647" fill="#FF0000" r="1"/>
<circle cx="71.5277793802472" cy="-241.00094043984203" fill="#FF0000" r="1"/>
<circle cx="73.38083115323096" cy="-241.786141362753" fill="#FF0000" r="1"/>
<circle cx="75.25434464958506" cy="-242.57759547182997" fill="#FF0000" r="1"/>
<circle cx="77.1484879751592" cy="-243.37574960151537" fill="#FF0000" r="1"/>
<circle cx="79.06344076356035" cy="-244.1810451757126" fill="#FF0000" r="1"/>
<circle cx="80.99939403969553" cy="-244.9939185143071" fill="#FF0000" r="1"/>
<circle cx="82.95655009074794" cy="-245.81480109940674" fill="#FF0000" r="1"/>
<circle cx="84.9351223435249" cy="-246.64411980008936" fill="#FF0000" r="1"/>
<circle cx="86.9353352470831" cy="-247.48229705427488" fill="#FF0000" r="1"/>
<circle cx="88.9574241594976" cy="-248.32975100615772" fill="#FF0000" r="1"/>
<circle cx="91.00163523759836" cy="-249.18689559743873" fill="#FF0000" r="1"/>
<circle cx="93.06822532845003" cy="-250.05414061039318" fill="#FF0000" r="1"/>
<circle cx="95.1574618612958" cy="-250.93189166059094" fill="#FF0000" r="1"/>
<circle cx="97.26962273862785" cy="-251.82055013685795" fill="#FF0000" r="1"/>
<circle cx="99.4049962249802" cy="-252.720513085824" fill="#FF0000" r="1"/>
<circle cx="101.56388083196809" cy="-253.63217303815176" fill="#FF0000" r="1"/>
<circle cx="103.74658519801892" cy="-254.55591777327322" fill="#FF0000" r="1"/>
<circle cx="105.95342796115379" cy="-255.49213001918483" fill="#FF0000" r="1"/>
<circle cx="108.18473762308594" cy="-256.4411870835629" fill="#FF0000" r="1"/>
<circle cx="110.44085240280029" cy="-257.40346041215963" fill="#FF0000" r="1"/>
<circle cx="112.72212007767114" cy="-258.3793150701311" fill="#FF0000" r="1"/>
<circle cx="115.0288978100559" cy="-259.3691091416249" fill="#FF0000" r="1"/>
<circle cx="117.36155195717933" cy="-260.37319304262684" fill="#FF0000" r="1"/>
<circle cx="119.72045786198673" cy="-261.39190874172544" fill="#FF0000" r="1"/>
<circle cx="122.10599962250286" cy="-262.42558888311066" fill="#FF0000" r="1"/>
<circle cx="124.51856983708032" cy="-263.47455580577116" fill="#FF0000" r="1"/>
<circle cx="126.95856932276028" cy="-264.53912045250485" fill="#FF0000" r="1"/>
<circle cx="129.42640680379822" cy="-265.61958116200447" fill="#FF0000" r="1"/>
<circle cx="131.92249856722808" cy="-266.71622233693466" fill="#FF0000" r="1"/>
<circle cx="134.44726808214887" cy="-267.8293129805766" fill="#FF0000" r="1"/>
<circle cx="137.00114557922308" cy="-268.9591050942899" fill="#FF0000" r="1"/>
<circle cx="139.58456758666836" cy="-270.10583192773373" fill="#FF0000" r="1"/>
<circle cx="142.19797641881325" cy="-271.26970607350756" fill="#FF0000" r="1"/>
<circle cx="144.8418196130673" cy="-272.45091739761654" fill="#FF0000" r="1"/>
<circle cx="147.516549310929" cy="-273.64963079696156" fill="#FF0000" r="1"/>
<circle cx="150.2226215784273" cy="-274.8659837748917" fill="#FF0000" r="1"/>
<circle cx="152.96049566115474" cy="-276.10008382575944" fill="#FF0000" r="1"/>
<circle cx="155.73063316881846" cy="-277.35200561939763" fill="#FF0000" r="1"/>
<circle cx="158.53349718399815" cy="-278.6217879765022" fill="#FF0000" r="1"/>
<circle cx="161.36955128956885" cy="-279.9094306260747" fill="#FF0000" r="1"/>
<circle cx="164.2392585090211" cy="-281.2148907363734" fill="#FF0000" r="1"/>
<circle cx="167.14308015369429" cy="-282.53807921125696" fill="#FF0000" r="1"/>
<circle cx="170.08147457073585" cy="-283.8788567444036" fill="#FF0000" r="1"/>
<circle cx="173.054895785415" cy="-285.23702962467615" fill="#FF0000" r="1"/>
<circle cx="176.06379203125692" cy="-286.61234528690477" fill="#FF0000" r="1"/>
<circle cx="179.10860416133167" cy="-288.00448760360206" fill="#FF0000" r="1"/>
<circle cx="182.18976393393447" cy="-289.41307191463767" fill="#FF0000" r="1"/>
<circle cx="185.30769216584144" cy="-290.83763979372014" fill="#FF0000" r="1"/>
<circle cx="188.46279674632203" cy="-292.27765355268485" fill="#FF0000" r="1"/>
<circle cx="191.6554705051486" cy="-293.73249048711847" fill="#FF0000" r="1"/>
<circle cx="194.88608892797308" cy="-295.20143686978156" fill="#FF0000" r="1"/>
<circle cx="198.15500771265235" cy="-296.68368170167537" fill="#FF0000" r="1"/>
<circle cx="201.46256016041" cy="-298.1783102344557" fill="#FF0000" r="1"/>
<circle cx="204.8090543961336" cy="-299.68429728228125" fill="#FF0000" r="1"/>
<circle cx="208.19477041264165" cy="-301.2005003461053" fill="#FF0000" r="1"/>
<circle cx="211.61995693442094" cy="-302.72565257893206" fill="#FF0000" r="1"/>
<circle cx="215.0848280971573" cy="-304.25835562667027" fill="#FF0000" r="1"/>
<circle cx="218.5895599403662" cy="-305.79707238594955" fill="#FF0000" r="1"/>
<circle cx="222.13428671160148" cy="-307.34011972763744" fill="#FF0000" r="1"/>
<circle cx="225.71909698208754" cy="-308.88566124278987" fill="#FF0000" r="1"/>
<circle cx="229.344029575206" cy="-310.4317000763861" fill="#FF0000" r="1"/>
<circle cx="233.00906931108204" cy="-311.97607192339785" fill="#FF0000" r="1"/>
<circle cx="236.71414257257874" cy="-313.5164382714778" fill="#FF0000" r="1"/>
<circle cx="240.45911270032587" cy="-315.0502799847441" fill="#FF0000" r="1"/>
<circle cx="244.24377522700024" cy="-316.5748913336947" fill="#FF0000" r="1"/>
<circle cx="248.0678529639404" cy="-318.087374587063" fill="#FF0000" r="1"/>
<circle cx="251.9309909563243" cy="-319.58463529228" fill="#FF0000" r="1"/>
<circle cx="255.83275132656772" cy="-321.06337838191916" fill="#FF0000" r="1"/>
<circle cx="259.77260802929794" cy="-322.52010525384355" fill="#FF0000" r="1"/>
<circle cx="263.7499415452199" cy="-323.95111198246065" fill="#FF0000" r="1"/>
<circle cx="267.76403354538917" cy="-325.3524888272018" fill="#FF0000" r="1"/>
<circle cx="271.814061561814" cy="-326.72012121170735" fill="#FF0000" r="1"/>
<circle cx="275.89909370488357" cy="-328.04969235281544" fill="#FF0000" r="1"/>
<circle cx="280.01808347281377" cy="-329.3366877218681" fill="#FF0000" r="1"/>
<circle cx="284.1698647030488" cy="-330.5764015215909" fill="#FF0000" r="1"/>
<circle cx="288.35314672027863" cy="-331.76394535936765" fill="#FF0000" r="1"/>
<circle cx="292.56650974035284" cy="-332.8942592915971" fill="#FF0000" r="1"/>
<circle cx="296.8084005937631" cy="-333.96212540348125" fill="#FF0000" r="1"/>
<circle cx="301.0771288364439" cy="-334.9621840735422" fill="#FF0000" r="1"/>
<circle cx="305.3708633192504" cy="-335.8889530519474" fill="#FF0000" r="1"/>
<circle cx="309.68762929048836" cy="-336.736849455944" fill="#FF0000" r="1"/>
<circle cx="314.0253061081429" cy="-337.5002147540458" fill="#FF0000" r="1"/>
<circle cx="318.3816256398209" cy="-338.1733427729105" fill="#FF0000" r="1"/>
<circle cx="322.75417142873755" cy="-338.7505107170239" fill="#FF0000" r="1"/>
<circle cx="327.1403787031701" cy="-339.22601314154156" fill="#FF0000" r="1"/>
<circle cx="331.53753530454003" cy="-339.5941987632463" fill="#FF0000" r="1"/>
<circle cx="335.9427836055107" cy="-339.84950993416345" fill="#FF0000" r="1"/>
<circle cx="340.35312348409764" cy="-339.98652453776566" fill="#FF0000" r="1"/>
<circle cx="344.76541641267625" cy="-340" fill="#FF0000" r="1"/>
<circle cx="349.17639071188603" cy="-339.88491903797086" fill="#FF0000" r="1"/>
<circle cx="353.58264800873553" cy="-339.6365366996499" fill="#FF0000" r="1"/>
<circle cx="357.9806709257455" cy="-339.25042818036053" fill="#FF0000" r="1"/>
<circle cx="362.3668320137895" cy="-338.72253683808833" fill="#FF0000" r="1"/>
<circle cx="366.73740392554794" cy="-338.04922177216883" fill="#FF0000" r="1"/>
<circle cx="371.088570809359" cy="-337.22730428092797" fill="#FF0000" r="1"/>
<circle cx="375.41644088499237" cy="-336.25411247576005" fill="#FF0000" r="1"/>
<circle cx="379.71706014379316" cy="-335.1275233041699" fill="#FF0000" r="1"/>
<circle cx="383.9864270961174" cy="-333.84600122453753" fill="#FF0000" r="1"/>
<circle cx="388.2205084694156" cy="-332.4086327825405" fill="#FF0000" r="1"/>
<circle cx="392.41525574118623" cy="-330.81515636461836" fill="#FF0000" r="1"/>
<circle cx="396.56662237278726" cy="-329.0659864483964" fill="#FF0000" r="1"/>
<circle cx="400.6705815932731" cy="-327.1622317338161" fill="#FF0000" r="1"/>
<circle cx="404.7231445674996" cy="-325.1057066213616" fill="#FF0000" r="1"/>
<circle cx="408.7203787701919" cy="-322.8989356040565" fill="#FF0000" r="1"/>
<circle cx="412.65842637792736" cy="-320.54515025590854" fill="#FF0000" r="1"/>
<circle cx="416.53352248442604" cy="-318.0482786286118" fill="#FF0000" r="1"/>
<circle cx="420.3420129414601" cy="-315.4129270073339" fill="#FF0000" r="1"/>
<circle cx="424.08037162830084" cy="-312.64435412157366" fill="#FF0000" r="1"/>
<circle cx="427.74521695702464" cy="-309.74843805421165" fill="#FF0000" r="1"/>
<circle cx="431.33332742918566" cy="-306.73163623663373" fill="#FF0000" r="1"/>
<circle cx="434.84165607122264" cy="-303.60093905574445" fill="#FF0000" r="1"/>
<circle cx="438.26734359126203" cy="-300.36381772555063" fill="#FF0000" r="1"/>
<circle cx="441.60773011837057" cy="-297.0281671878228" fill="#FF0000" r="1"/>
<circle cx="444.860365406366" cy="-293.6022448997131" fill="#FF0000" r="1"/>
<circle cx="448.0230174074984" cy="-290.09460643835143" fill="#FF0000" r="1"/>
<circle cx="451.09367914608885" cy="-286.5140389013566" fill="#FF0000" r="1"/>
<circle cx="454.07057384793944" cy="-282.86949310677176" fill="#FF0000" r="1"/>
<circle cx="456.95215830737646" cy="-279.17001559591125" fill="#FF0000" r="1"/>
<circle cx="459.737124499522" cy="-275.42468141865015" fill="#FF0000" r="1"/>
<circle cx="462.42439947021563" cy="-271.64252863427424" fill="#FF0000" r="1"/>
<circle cx="465.013143559357" cy="-267.83249539434905" fill="#FF0000" r="1"/>
<circle cx="467.5027470348431" cy="-264.00336039000473" fill="#FF0000" r="1"/>
<circle cx="469.89282523330627" cy="-260.16368734784106" fill="#FF0000" r="1"/>
<circle cx="472.18321232020685" cy="-256.3217741499486" fill="#FF0000" r="1"/>
<circle cx="474.37395379527254" cy="-252.48560703802764" fill="#FF0000" r="1"/>
<circle cx="476.46529787967796" cy="-248.662820242976" fill="#FF0000" r="1"/>
<circle cx="478.4576859286828" cy="-244.86066126313318" fill="#FF0000" r="1"/>
<circle cx="480.3517420177544" cy="-241.0859618998404" fill="#FF0000" r="1"/>
<circle cx="482.1482618516205" cy="-237.3451150509321" fill="#FF0000" r="1"/>
<circle cx="483.8482011444214" cy="-233.64405716356742" fill="#FF0000" r="1"/>
<circle cx="485.45266361543094" cy="-229.98825615928916" fill="#FF0000" r="1"/>
<circle cx="486.9628887389562" cy="-226.38270456766148" fill="#FF0000" r="1"/>
<circle cx="488.3802393793641" cy="-222.83191754109257" fill="#FF0000" r="1"/>
<circle cx="489.70618943302145" cy="-219.33993537278127" fill="#FF0000" r="1"/>
<circle cx="490.9423115886359" cy="-215.9103301020181" fill="#FF0000" r="1"/>
<circle cx="492.09026530636515" cy="-212.54621576578765" fill="#FF0000" r="1"/>
<circle cx="493.1517851044351" cy="-209.2502618419513" fill="#FF0000" r="1"/>
<circle cx="494.1286692301656" cy="-206.02470942616134" fill="#FF0000" r="1"/>
<circle cx="495.0227687804989" cy="-202.87138969084364" fill="#FF0000" r="1"/>
<circle cx="495.83597732558536" cy="-199.79174418874936" fill="#FF0000" r="1"/>
<circle cx="496.5702210778958" cy="-196.78684658434418" fill="#FF0000" r="1"/>
<circle cx="497.2274496388503" cy="-193.85742542231307" fill="#FF0000" r="1"/>
<circle cx="497.80962734520216" cy="-191.00388757239878" fill="#FF0000" r="1"/>
<circle cx="498.31872522846896" cy="-188.22634202244726" fill="#FF0000" r="1"/>
<circle cx="498.75671359264146" cy="-185.52462372578918" fill="#FF0000" r="1"/>
<circle cx="499.12555520821263" cy="-182.89831724397348" fill="#FF0000" r="1"/>
<circle cx="499.42719911431027" cy="-180.34677996053762" fill="#FF0000" r="1"/>
<circle cx="499.6635750153208" cy="-177.86916467525543" fill="#FF0000" r="1"/>
<circle cx="499.8365882538728" cy="-175.46444142058266" fill="#FF0000" r="1"/>
<circle cx="499.94811533833183" cy="-173.13141837238106" fill="#FF0000" r="1"/>
<circle cx="500" cy="-170.8687617551405" fill="#FF0000" r="1"/>
<circle cx="499.99404975296346" cy="-168.67501466761416" fill="#FF0000" r="1"/>
<circle cx="499.9320329279035" cy="-166.54861477792403" fill="#FF0000" r="1"/>
<circle cx="499.81567615013216" cy="-164.48791085774775" fill="#FF0000" r="1"/>
<circle cx="499.6466622315604" cy="-162.49117814318424" fill="#FF0000" r="1"/>
<circle cx="499.42662844618434" cy="-160.55663252540447" fill="#FF0000" r="1"/>
<circle cx="499.15716515892507" cy="-158.68244358733912" fill="#FF0000" r="1"/>
<circle cx="498.83981477822425" cy="-156.8667465135933" fill="#FF0000" r="1"/>
<circle cx="498.4760710036171" cy="-155.10765290967745" fill="#FF0000" r="1"/>
<circle cx="498.0673783405329" cy="-153.4032605736884" fill="#FF0000" r="1"/>
<circle cx="497.61513185576246" cy="-151.75166226895388" fill="#FF0000" r="1"/>
<circle cx="497.1206771483416" cy="-150.15095355005442" fill="#FF0000" r="1"/>
<circle cx="496.5853105119951" cy="-148.59923969724292" fill="#FF0000" r="1"/>
<circle cx="496.01027926673186" cy="-147.09464181577067" fill="#FF0000" r="1"/>
<circle cx="495.3967822386549" cy="-145.63530215716048" fill="#FF0000" r="1"/>
<circle cx="494.7459703685308" cy="-144.2193887192017" fill="#FF0000" r="1"/>
<circle cx="494.0589474311173" cy="-142.8450991805115" fill="#FF0000" r="1"/>
<circle cx="493.33677084868816" cy="-141.51066422404105" fill="#FF0000" r="1"/>
<circle cx="492.5804525835723" cy="-140.2143503020192" fill="#FF0000" r="1"/>
<circle cx="491.79096009586294" cy="-138.9544618926128" fill="#FF0000" r="1"/>
<circle cx="490.96921735372484" cy="-137.72934329613443" fill="#FF0000" r="1"/>
<circle cx="490.11610588493505" cy="-136.53738001601732" fill="#FF0000" r="1"/>
<circle cx="489.23246585943036" cy="-135.3769997670671" fill="#FF0000" r="1"/>
<circle cx="488.31909719370395" cy="-134.2466731507441" fill="#FF0000" r="1"/>
<circle cx="487.3767606688881" cy="-133.14491403447462" fill="#FF0000" r="1"/>
<circle cx="486.40617905528643" cy="-132.07027966926975" fill="#FF0000" r="1"/>
<circle cx="485.40803823697314" cy="-131.02137057727333" fill="#FF0000" r="1"/>
<circle cx="484.38298833086424" cy="-129.99683023829348" fill="#FF0000" r="1"/>
<circle cx="483.33164479538937" cy="-128.99534460190915" fill="#FF0000" r="1"/>
<circle cx="482.2545895245504" cy="-128.01564144939596" fill="#FF0000" r="1"/>
<circle cx="481.1523719237555" cy="-127.0564896274969" fill="#FF0000" r="1"/>
<circle cx="480.02550996435997" cy="-126.11669817397402" fill="#FF0000" r="1"/>
<circle cx="478.8744912143397" cy="-125.19511535292276" fill="#FF0000" r="1"/>
<circle cx="477.6997738429636" cy="-124.29062761600927" fill="#FF0000" r="1"/>
<circle cx="476.50178759773047" cy="-123.4021585041024" fill="#FF0000" r="1"/>
<circle cx="475.28093475219043" cy="-122.52866750221212" fill="#FF0000" r="1"/>
<circle cx="474.03759102358947" cy="-121.66914885921244" fill="#FF0000" r="1"/>
<circle cx="472.7721064595523" cy="-120.82263038251054" fill="#FF0000" r="1"/>
<circle cx="471.4848062932719" cy="-119.98817221662499" fill="#FF0000" r="1"/>
<circle cx="470.1759917668888" cy="-119.16486561354237" fill="#FF0000" r="1"/>
<circle cx="468.8459409229371" cy="-118.35183170173207" fill="#FF0000" r="1"/>
<circle cx="467.49490936389867" cy="-117.54822025980341" fill="#FF0000" r="1"/>
<circle cx="466.1231309800546" cy="-116.75320849998481" fill="#FF0000" r="1"/>
<circle cx="464.73081864594576" cy="-115.96599986588097" fill="#FF0000" r="1"/>
<circle cx="463.3181648858634" cy="-115.1858228483192" fill="#FF0000" r="1"/>
<circle cx="461.88534250887994" cy="-114.41192982252157" fill="#FF0000" r="1"/>
<circle cx="460.43250521401035" cy="-113.64359590932955" fill="#FF0000" r="1"/>
<circle cx="458.9597881661573" cy="-112.88011786276074" fill="#FF0000" r="1"/>
<circle cx="457.4673085435478" cy="-112.1208129857823" fill="#FF0000" r="1"/>
<circle cx="455.95516605741426" cy="-111.36501807584376" fill="#FF0000" r="1"/>
<circle cx="454.4234434447083" cy="-110.61208840141572" fill="#FF0000" r="1"/>
<circle cx="452.8722069346649" cy="-109.86139671052526" fill="#FF0000" r="1"/>
<circle cx="451.30150669005735" cy="-109.11233227206567" fill="#FF0000" r="1"/>
<circle cx="449.71137722400215" cy="-108.36429995047556" fill="#FF0000" r="1"/>
<circle cx="448.10183779318544" cy="-107.61671931423578" fill="#FF0000" r="1"/>
<circle cx="446.47289276839126" cy="-106.86902377851288" fill="#FF0000" r="1"/>
<circle cx="444.8245319832252" cy="-106.12065978218658" fill="#FF0000" r="1"/>
<circle cx="443.15673106192287" cy="-105.37108599942998" fill="#FF0000" r="1"/>
<circle cx="441.46945172714646" cy="-104.61977258596772" fill="#FF0000" r="1"/>
<circle cx="439.76264208866695" cy="-103.86620046011119" fill="#FF0000" r="1"/>
<circle cx="438.0362369138389" cy="-103.10986061866602" fill="#FF0000" r="1"/>
<circle cx="436.29015788077174" cy="-102.3502534878177" fill="#FF0000" r="1"/>
<circle cx="434.52431381510945" cy="-101.58688830913141" fill="#FF0000" r="1"/>
<circle cx="432.738600911331" cy="-100.8192825608439" fill="#FF0000" r="1"/>
<circle cx="430.9329029394903" cy="-100.04696141468598" fill="#FF0000" r="1"/>
<circle cx="429.10709143832423" cy="-99.2694572285435" fill="#FF0000" r="1"/>
<circle cx="427.26102589566096" cy="-98.48630907535194" fill="#FF0000" r="1"/>
<circle cx="425.3945539170775" cy="-97.69706230871492" fill="#FF0000" r="1"/>
<circle cx="423.507511383767" cy="-96.90126816584872" fill="#FF0000" r="1"/>
<circle cx="421.5997226005942" cy="-96.09848340857411" fill="#FF0000" r="1"/>
<circle cx="419.6710004353364" cy="-95.288270003211" fill="#FF0000" r="1"/>
<circle cx="417.7211464501347" cy="-94.47019484037531" fill="#FF0000" r="1"/>
<circle cx="415.7499510262046" cy="-93.64382949583361" fill="#FF0000" r="1"/>
<circle cx="413.7571934828896" cy="-92.80875003373755" fill="#FF0000" r="1"/>
<circle cx="411.74264219217685" cy="-91.96453685373939" fill="#FF0000" r="1"/>
<circle cx="409.70605468983644" cy="-91.11077458367991" fill="#FF0000" r="1"/>
<circle cx="407.6471777843907" cy="-90.24705201974156" fill="#FF0000" r="1"/>
<circle cx="405.56574766517383" cy="-89.37296211617343" fill="#FF0000" r="1"/>
<circle cx="403.46149001079846" cy="-88.48810202691972" fill="#FF0000" r="1"/>
<circle cx="401.3341200994097" cy="-87.59207320172128" fill="#FF0000" r="1"/>
<circle cx="399.18334292217645" cy="-86.68448153950801" fill="#FF0000" r="1"/>
<circle cx="397.00885330154904" cy="-85.76493760216253" fill="#FF0000" r="1"/>
<circle cx="394.8103360158904" cy="-84.83305689200748" fill="#FF0000" r="1"/>
<circle cx="392.58746593218586" cy="-83.88846019665472" fill="#FF0000" r="1"/>
<circle cx="390.3399081486272" cy="-82.93077400515075" fill="#FF0000" r="1"/>
<circle cx="388.0673181489801" cy="-81.9596309996599" fill="#FF0000" r="1"/>
<circle cx="385.7693419707522" cy="-80.97467062724527" fill="#FF0000" r="1"/>
<circle cx="383.4456163893049" cy="-79.9755397566345" fill="#FF0000" r="1"/>
<circle cx="381.0957691201841" cy="-78.96189342519307" fill="#FF0000" r="1"/>
<circle cx="378.71941904208063" cy="-77.93339568167133" fill="#FF0000" r="1"/>
<circle cx="376.3161764429857" cy="-76.88972053063893" fill="#FF0000" r="1"/>
<circle cx="373.8856432922606" cy="-75.8305529848723" fill="#FF0000" r="1"/>
<circle cx="371.4274135415091" cy="-74.75559023231186" fill="#FF0000" r="1"/>
<circle cx="368.94107345731595" cy="-73.6645429245548" fill="#FF0000" r="1"/>
<circle cx="366.426201989102" cy="-72.55713659419199" fill="#FF0000" r="1"/>
<circle cx="363.88237117553905" cy="-71.43311320862843" fill="#FF0000" r="1"/>
<circle cx="361.309146593169" cy="-70.29223286834197" fill="#FF0000" r="1"/>
<circle cx="358.70608785108504" cy="-69.13427565782735" fill="#FF0000" r="1"/>
<circle cx="356.07274913574787" cy="-67.959043657736" fill="#FF0000" r="1"/>
<circle cx="353.4086798102334" cy="-66.76636312694669" fill="#FF0000" r="1"/>
<circle cx="350.71342507243946" cy="-65.5560868634804" fill="#FF0000" r="1"/>
<circle cx="347.9865266770103" cy="-64.32809675329294" fill="#FF0000" r="1"/>
<circle cx="345.2275237259735" cy="-63.08230651602828" fill="#FF0000" r="1"/>
<circle cx="342.4359535333184" cy="-61.81866465678283" fill="#FF0000" r="1"/>
<circle cx="339.6113525689798" cy="-60.537157632796934" fill="#FF0000" r="1"/>
<circle cx="336.75325748791795" cy="-59.23781324374171" fill="#FF0000" r="1"/>
<circle cx="333.8612062502052" cy="-57.920704253884516" fill="#FF0000" r="1"/>
<circle cx="330.93473933823867" cy="-56.58595225387587" fill="#FF0000" r="1"/>
<circle cx="327.97340107739086" cy="-55.233731769180665" fill="#FF0000" r="1"/>
<circle cx="324.97674106657746" cy="-53.864274621251944" fill="#FF0000" r="1"/>
<circle cx="321.94431572536706" cy="-52.47787454638941" fill="#FF0000" r="1"/>
<circle cx="318.8756899643685" cy="-51.07489207580735" fill="#FF0000" r="1"/>
<circle cx="315.7704389856971" cy="-49.65575967872698" fill="#FF0000" r="1"/>
<circle cx="312.62815022034545" cy="-48.22098716827323" fill="#FF0000" r="1"/>
<circle cx="309.4484254092449" cy="-46.771167367560466" fill="#FF0000" r="1"/>
<circle cx="306.23088283470355" cy="-45.30698203056086" fill="#FF0000" r="1"/>
<circle cx="302.9751597087175" cy="-43.82920800912572" fill="#FF0000" r="1"/>
<circle cx="299.6809147243897" cy="-42.33872365383763" fill="#FF0000" r="1"/>
<circle cx="296.3478307763063" cy="-40.83651543217481" fill="#FF0000" r="1"/>
<circle cx="292.97561785524016" cy="-39.32368474273305" fill="#FF0000" r="1"/>
<circle cx="289.5640161219207" cy="-37.8014548989456" fill="#FF0000" r="1"/>
<circle cx="286.1127991638522" cy="-36.271178249838634" fill="#FF0000" r="1"/>
<circle cx="282.6217774382295" cy="-34.734343398840736" fill="#FF0000" r="1"/>
<circle cx="279.0908019028985" cy="-33.192582474514296" fill="#FF0000" r="1"/>
<circle cx="275.51976783600765" cy="-31.647678399293557" fill="#FF0000" r="1"/>
<circle cx="271.90861884349283" cy="-30.10157209390797" fill="#FF0000" r="1"/>
<circle cx="268.2573510517976" cy="-28.556369546164948" fill="#FF0000" r="1"/>
<circle cx="264.56601748126053" cy="-27.014348663208743" fill="#FF0000" r="1"/>
<circle cx="260.8347325933684" cy="-25.477965816326318" fill="#FF0000" r="1"/>
<circle cx="257.06367700258016" cy="-23.949861976927938" fill="#FF0000" r="1"/>
<circle cx="253.25310234065475" cy="-22.432868331609587" fill="#FF0000" r="1"/>
<circle cx="249.40333625836658" cy="-20.930011253357577" fill="#FF0000" r="1"/>
<circle cx="245.51478754616255" cy="-19.444516495169967" fill="#FF0000" r="1"/>
<circle cx="241.58795135170385" cy="-17.979812461870143" fill="#FF0000" r="1"/>
<circle cx="237.62341446836697" cy="-16.539532405941266" fill="#FF0000" r="1"/>
<circle cx="233.62186066465702" cy="-15.127515384125541" fill="#FF0000" r="1"/>
<circle cx="229.5840760201463" cy="-13.74780580365994" fill="#FF0000" r="1"/>
<circle cx="225.51095422902986" cy="-12.404651380755103" fill="#FF0000" r="1"/>
<circle cx="221.40350182772795" cy="-11.10249932969878" fill="#FF0000" r="1"/>
</g>
<g>
<g>
<line stroke="black" stroke-width="1" x1="2.0921848677100754" x2="2.0921848677100754" y1="0" y2="10"/>
<line stroke="black" stroke-width="1" x1="126.04664471302455" x2="126.04664471302455" y1="0" y2="10"/>
<line stroke="black" stroke-width="1" x1="250.001104558339" x2="250.001104558339" y1="0" y2="10"/>
<line stroke="black" stroke-width="1" x1="373.95556440365345" x2="373.95556440365345" y1="0" y2="10"/>
<line stroke="black" stroke-width="1" x1="497.9100242489679" x2="497.9100242489679" y1="0" y2="10"/>
</g>
<line stroke="black" stroke-width="1" x1="0" x2="500" y1="0" y2="0"/>
<g>
<text font-size="12" text-anchor="middle" x="2.0921848677100754" y="20">
-2
</text>
<text font-size="12" text-anchor="middle" x="126.04664471302455" y="20">
-1
</text>
<text font-size="12" text-anchor="middle" x="250.001104558339" y="20">
0
</text>
<text font-size="12" text-anchor="middle" x="373.95556440365345" y="20">
1
</text>
<text font-size="12" text-anchor="middle" x="497.9100242489679" y="20">
2
</text>
</g>
<text font-size="12" text-anchor="middle" x="250" y="30">
X
</text>
</g>
<g>
<g>
<line stroke="black" stroke-width="1" x1="0" x2="-10" y1="-50.61149306499103" y2="-50.61149306499103"/>
<line stroke="black" stroke-width="1" x1="0" x2="-10" y1="-170.00113300082495" y2="-170.00113300082495"/>
<line stroke="black" stroke-width="1" x1="0" x2="-10" y1="-289.3907729366589" y2="-289.3907729366589"/>
</g>
<line stroke="black" stroke-0="1" x1="0" x2="0" y1="0" y2="-340"/>
<g>
<text dominant-baseline="middle" font-size="12" text-anchor="end" x="-15" y="-50.61149306499103">
-5
</text>
<text dominant-baseline="middle" font-size="12" text-anchor="end" x="-15" y="-170.00113300082495">
0
</text>
<text dominant-baseline="middle" font-size="12" text-anchor="end" x="-15" y="-289.3907729366589">
5
</text>
</g>
<text font-size="12" text-anchor="middle" transform="rotate(-90 -30 -170)" x="-30" y="-170">
V
</text>
</g>
</g>
</svg>